<svg width="15" height="12" viewBox="0 0 15 12" fill="none" xmlns="http://www.w3.org/2000/svg">
<path id="bg-marks-left" d="M14.6219 2.55658e-06L14.6219 2.28923C13.5906 2.62154 12.7804 3.21231 12.1174 4.06154C11.4544 4.87385 11.1598 5.72308 11.1966 6.60923C11.3808 6.49846 11.6754 6.46154 12.0806 6.46154C12.8172 6.46154 13.4801 6.72 13.9958 7.23692C14.5114 7.75385 14.7692 8.41846 14.7692 9.23077C14.7692 10.0431 14.4746 10.7077 13.9589 11.2246C13.4065 11.7415 12.7067 12 11.8596 12C10.8651 12 10.0549 11.5938 9.46557 10.7815C8.83944 10.0062 8.54479 9.00923 8.54479 7.79077C8.54479 5.87077 9.09726 4.24616 10.2022 2.84308C11.2703 1.44 12.7435 0.480003 14.6219 2.55658e-06ZM6.04028 1.05612e-06L6.04028 2.28923C5.04585 2.62154 4.23556 3.21231 3.60944 4.06154C2.94648 4.87385 2.615 5.72308 2.65183 6.60923C2.79916 6.49846 3.0938 6.46154 3.53578 6.46154C4.27239 6.46154 4.89852 6.72 5.41416 7.23692C5.92979 7.75385 6.22444 8.41846 6.22444 9.23077C6.22444 10.0431 5.92979 10.7077 5.41416 11.2246C4.86169 11.7415 4.1619 12 3.31479 12C2.32035 12 1.5469 11.5938 0.957604 10.7815C0.294646 10.0062 -1.57522e-06 9.00923 -1.36218e-06 7.79077C-1.02648e-06 5.87077 0.515633 4.24615 1.62056 2.84308C2.72549 1.44 4.19873 0.480001 6.04028 1.05612e-06Z" fill="url(#paint0_linear_2011_2744)"/>
<defs>
<linearGradient id="paint0_linear_2011_2744" x1="11.6923" y1="1.32231e-07" x2="11.6923" y2="20.6154" gradientUnits="userSpaceOnUse">
<stop stop-color="#CAEEE7"/>
<stop offset="0.77" stop-color="#CAEEE7" stop-opacity="0"/>
</linearGradient>
</defs>
</svg>
