<svg width="16" height="12" viewBox="0 0 16 12" fill="none" xmlns="http://www.w3.org/2000/svg">
<path id="bg-marks-right" d="M0.916666 12L0.916666 9.71077C1.94793 9.37846 2.75822 8.78769 3.42117 7.93846C4.08413 7.12615 4.37878 6.27692 4.34195 5.39077C4.15779 5.50154 3.86315 5.53846 3.45801 5.53846C2.72139 5.53846 2.05843 5.28 1.54279 4.76308C1.02716 4.24615 0.769342 3.58154 0.769342 2.76923C0.769342 1.95692 1.06399 1.29231 1.57963 0.775383C2.13209 0.25846 2.83188 -1.5718e-07 3.67899 -8.31233e-08C4.67343 3.81311e-09 5.48371 0.406153 6.07301 1.21846C6.69913 1.99384 6.99378 2.99077 6.99378 4.20923C6.99378 6.12923 6.44132 7.75384 5.33639 9.15692C4.26829 10.56 2.79505 11.52 0.916666 12ZM9.49829 12L9.49829 9.71077C10.4927 9.37846 11.303 8.78769 11.9291 7.93846C12.5921 7.12615 12.9236 6.27692 12.8867 5.39077C12.7394 5.50154 12.4448 5.53846 12.0028 5.53846C11.2662 5.53846 10.6401 5.28 10.1244 4.76308C9.60878 4.24615 9.31414 3.58154 9.31414 2.76923C9.31414 1.95692 9.60878 1.29231 10.1244 0.775383C10.6769 0.258461 11.3767 5.89829e-07 12.2238 6.63886e-07C13.2182 7.50823e-07 13.9917 0.406154 14.581 1.21846C15.2439 1.99384 15.5386 2.99077 15.5386 4.20923C15.5386 6.12923 15.0229 7.75385 13.918 9.15692C12.8131 10.56 11.3398 11.52 9.49829 12Z" fill="url(#paint0_linear_2011_2743)"/>
<defs>
<linearGradient id="paint0_linear_2011_2743" x1="3.84627" y1="12" x2="3.84626" y2="-8.61539" gradientUnits="userSpaceOnUse">
<stop stop-color="#CAEEE7"/>
<stop offset="0.77" stop-color="#CAEEE7" stop-opacity="0"/>
</linearGradient>
</defs>
</svg>
