<svg width="48" height="39" viewBox="0 0 48 39" fill="none" xmlns="http://www.w3.org/2000/svg">
<path id="bg-marks" opacity="0.5" d="M47.5212 8.30887e-06L47.5212 7.44C44.1696 8.52 41.5362 10.44 39.3816 13.2C37.2269 15.84 36.2693 18.6 36.389 21.48C36.9875 21.12 37.9451 21 39.2618 21C41.6559 21 43.8105 21.84 45.4863 23.52C47.1621 25.2 48 27.36 48 30C48 32.64 47.0424 34.8 45.3666 36.48C43.5711 38.16 41.2968 39 38.5436 39C35.3117 39 32.6783 37.68 30.7631 35.04C28.7282 32.52 27.7706 29.28 27.7706 25.32C27.7706 19.08 29.5661 13.8 33.1571 9.24C36.6284 4.68 41.4165 1.56001 47.5212 8.30887e-06ZM19.6309 3.43238e-06L19.6309 7.44C16.399 8.52 13.7656 10.44 11.7307 13.2C9.57606 15.84 8.49875 18.6 8.61845 21.48C9.09726 21.12 10.0549 21 11.4913 21C13.8853 21 15.9202 21.84 17.596 23.52C19.2718 25.2 20.2294 27.36 20.2294 30C20.2294 32.64 19.2718 34.8 17.596 36.48C15.8005 38.16 13.5262 39 10.7731 39C7.54114 39 5.02743 37.68 3.11221 35.04C0.957601 32.52 -5.11948e-06 29.28 -4.42709e-06 25.32C-3.33605e-06 19.08 1.67581 13.8 5.26683 9.23999C8.85786 4.68 13.6459 1.56 19.6309 3.43238e-06Z" fill="url(#paint0_linear_564_489)"/>
<defs>
<linearGradient id="paint0_linear_564_489" x1="38" y1="4.29753e-07" x2="38" y2="67" gradientUnits="userSpaceOnUse">
<stop stop-color="#CAEEE7"/>
<stop offset="0.77" stop-color="#CAEEE7" stop-opacity="0"/>
</linearGradient>
</defs>
</svg>
