<svg width="16" height="16" viewBox="0 0 16 16" fill="none" xmlns="http://www.w3.org/2000/svg">
<g id="checkbox" clip-path="url(#clip0_1365_2058)">
<path id="check-circle" d="M8 0C6.41775 0 4.87103 0.469192 3.55544 1.34824C2.23985 2.22729 1.21447 3.47672 0.608967 4.93853C0.00346631 6.40034 -0.15496 8.00887 0.153721 9.56072C0.462403 11.1126 1.22433 12.538 2.34315 13.6569C3.46197 14.7757 4.88743 15.5376 6.43928 15.8463C7.99113 16.155 9.59966 15.9965 11.0615 15.391C12.5233 14.7855 13.7727 13.7602 14.6518 12.4446C15.5308 11.129 16 9.58225 16 8C16 6.94942 15.7931 5.90914 15.391 4.93853C14.989 3.96793 14.3997 3.08601 13.6569 2.34315C12.914 1.60028 12.0321 1.011 11.0615 0.608964C10.0909 0.206926 9.05058 0 8 0ZM11.224 6.56C11.1124 6.67291 7.488 10.288 7.488 10.288C7.43347 10.3452 7.36759 10.3904 7.29458 10.4207C7.22157 10.451 7.14303 10.4658 7.064 10.464C6.98518 10.4643 6.9071 10.4489 6.8343 10.4186C6.7615 10.3884 6.69545 10.344 6.64 10.288L4.776 8.424C4.67002 8.31026 4.61232 8.15982 4.61506 8.00438C4.61781 7.84894 4.68077 7.70063 4.7907 7.5907C4.90064 7.48077 5.04894 7.4178 5.20438 7.41506C5.35983 7.41232 5.51026 7.47001 5.624 7.576L7.064 9.016L10.376 5.712C10.431 5.65509 10.4969 5.60984 10.5697 5.57893C10.6426 5.54802 10.7209 5.5321 10.8 5.5321C10.8791 5.5321 10.9575 5.54802 11.0303 5.57893C11.1031 5.60984 11.169 5.65509 11.224 5.712C11.3356 5.82491 11.3982 5.97725 11.3982 6.136C11.3982 6.29474 11.3356 6.44709 11.224 6.56Z" fill="#1CD1AD"/>
</g>
<defs>
<clipPath id="clip0_1365_2058">
<rect width="16" height="16" fill="white"/>
</clipPath>
</defs>
</svg>
