<svg width="16" height="16" viewBox="0 0 16 16" fill="none" xmlns="http://www.w3.org/2000/svg">
<g id="checkbox" clip-path="url(#clip0_1365_2321)">
<path id="check-circle" d="M3.83323 1.76398C5.06659 0.939867 6.51664 0.5 8 0.5C8.98492 0.5 9.96019 0.693993 10.8701 1.0709C11.7801 1.44781 12.6069 2.00026 13.3033 2.6967C13.9997 3.39314 14.5522 4.21993 14.9291 5.12987C15.306 6.03981 15.5 7.01508 15.5 8C15.5 9.48336 15.0601 10.9334 14.236 12.1668C13.4119 13.4001 12.2406 14.3614 10.8701 14.9291C9.49968 15.4967 7.99168 15.6453 6.53683 15.3559C5.08197 15.0665 3.7456 14.3522 2.6967 13.3033C1.64781 12.2544 0.933503 10.918 0.644114 9.46317C0.354725 8.00832 0.50325 6.50032 1.07091 5.12987C1.63856 3.75943 2.59986 2.58809 3.83323 1.76398Z" stroke="#E9E9E9"/>
</g>
<defs>
<clipPath id="clip0_1365_2321">
<rect width="16" height="16" fill="white"/>
</clipPath>
</defs>
</svg>
