<svg width="24" height="24" viewBox="0 0 24 24" fill="none" xmlns="http://www.w3.org/2000/svg">
<g id="icon-delete">
<path id="trash" d="M20.75 6C20.75 6.19891 20.671 6.38968 20.5303 6.53033C20.3897 6.67098 20.1989 6.75 20 6.75H4C3.80109 6.75 3.61032 6.67098 3.46967 6.53033C3.32902 6.38968 3.25 6.19891 3.25 6C3.25 5.80109 3.32902 5.61032 3.46967 5.46967C3.61032 5.32902 3.80109 5.25 4 5.25H8.214C8.30967 5.0502 8.39056 4.84364 8.456 4.632L8.656 4.025C8.75578 3.72614 8.94713 3.46628 9.20291 3.28229C9.45869 3.09831 9.76592 2.99954 10.081 3H13.919C14.2337 2.99996 14.5405 3.09892 14.7959 3.28288C15.0513 3.46683 15.2423 3.72646 15.342 4.025L15.542 4.632C15.6074 4.84364 15.6883 5.0502 15.784 5.25H20C20.1989 5.25 20.3897 5.32902 20.5303 5.46967C20.671 5.61032 20.75 5.80109 20.75 6ZM18.56 7.75C18.6011 7.74991 18.6419 7.75828 18.6796 7.77459C18.7174 7.7909 18.7514 7.81481 18.7795 7.84482C18.8077 7.87483 18.8293 7.91031 18.8432 7.94905C18.857 7.98778 18.8627 8.02896 18.86 8.07L18.19 18.2C18.2039 18.5888 18.1341 18.976 17.9854 19.3355C17.8368 19.695 17.6127 20.0184 17.3283 20.2839C17.0439 20.5493 16.7058 20.7506 16.3369 20.8741C15.968 20.9977 15.5769 21.0406 15.19 21H8.81C8.4231 21.0406 8.03198 20.9977 7.66309 20.8741C7.2942 20.7506 6.95613 20.5493 6.67173 20.2839C6.38733 20.0184 6.16323 19.695 6.01456 19.3355C5.8659 18.976 5.79614 18.5888 5.81 18.2L5.141 8.07C5.13826 8.02896 5.14399 7.98778 5.15783 7.94905C5.17167 7.91031 5.19334 7.87483 5.22147 7.84482C5.24961 7.81481 5.28361 7.7909 5.32138 7.77459C5.35915 7.75828 5.39986 7.74991 5.441 7.75H18.56ZM10.75 11C10.75 10.8011 10.671 10.6103 10.5303 10.4697C10.3897 10.329 10.1989 10.25 10 10.25C9.80109 10.25 9.61032 10.329 9.46967 10.4697C9.32902 10.6103 9.25 10.8011 9.25 11V16C9.25 16.1989 9.32902 16.3897 9.46967 16.5303C9.61032 16.671 9.80109 16.75 10 16.75C10.1989 16.75 10.3897 16.671 10.5303 16.5303C10.671 16.3897 10.75 16.1989 10.75 16V11ZM14.75 11C14.75 10.8011 14.671 10.6103 14.5303 10.4697C14.3897 10.329 14.1989 10.25 14 10.25C13.8011 10.25 13.6103 10.329 13.4697 10.4697C13.329 10.6103 13.25 10.8011 13.25 11V16C13.25 16.1989 13.329 16.3897 13.4697 16.5303C13.6103 16.671 13.8011 16.75 14 16.75C14.1989 16.75 14.3897 16.671 14.5303 16.5303C14.671 16.3897 14.75 16.1989 14.75 16V11Z" fill="white"/>
</g>
</svg>
