<svg width="20" height="20" viewBox="0 0 20 20" fill="none" xmlns="http://www.w3.org/2000/svg">
<g id="icon-eye">
<path id="eye" d="M18.5244 8.31819C17.3124 6.332 14.5931 3 10 3C5.40689 3 2.68758 6.332 1.47561 8.31819C1.16439 8.82632 1 9.4076 1 10C1 10.5924 1.16439 11.1737 1.47561 11.6818C2.68758 13.668 5.40689 17 10 17C14.5931 17 17.3124 13.668 18.5244 11.6818C18.8356 11.1737 19 10.5924 19 10C19 9.4076 18.8356 8.82632 18.5244 8.31819ZM17.3364 10.9863C16.2768 12.7268 13.9091 15.6452 10 15.6452C6.09087 15.6452 3.72324 12.7268 2.66358 10.9863C2.48104 10.6883 2.38462 10.3474 2.38462 10C2.38462 9.65257 2.48104 9.31167 2.66358 9.01368C3.72324 7.27316 6.09087 4.35484 10 4.35484C13.9091 4.35484 16.2768 7.27316 17.3364 9.01368C17.519 9.31167 17.6154 9.65257 17.6154 10C17.6154 10.3474 17.519 10.6883 17.3364 10.9863ZM10 6.16129C9.22411 6.16129 8.46564 6.38643 7.82051 6.80823C7.17538 7.23003 6.67257 7.82956 6.37565 8.53099C6.07873 9.23242 6.00104 10.0043 6.15241 10.7489C6.30377 11.4935 6.6774 12.1775 7.22604 12.7144C7.77468 13.2512 8.47368 13.6168 9.23467 13.7649C9.99565 13.9131 10.7844 13.837 11.5013 13.5465C12.2181 13.256 12.8308 12.7639 13.2618 12.1327C13.6929 11.5014 13.923 10.7592 13.923 10C13.9218 8.98228 13.508 8.00658 12.7726 7.28694C12.0372 6.5673 11.0401 6.16249 10 6.16129ZM10 12.4839C9.49795 12.4839 9.00718 12.3382 8.58974 12.0653C8.17231 11.7923 7.84695 11.4044 7.65483 10.9505C7.4627 10.4967 7.41244 9.99724 7.51038 9.51542C7.60832 9.0336 7.85008 8.59101 8.20508 8.24364C8.56008 7.89626 9.01238 7.6597 9.50478 7.56386C9.99718 7.46801 10.5076 7.5172 10.9714 7.7052C11.4352 7.8932 11.8317 8.21157 12.1106 8.62004C12.3895 9.02851 12.5384 9.50874 12.5384 10C12.5379 10.6586 12.2703 11.2901 11.7944 11.7558C11.3184 12.2215 10.6731 12.4834 10 12.4839Z" fill="#25314C" stroke="#25314C" stroke-width="0.6"/>
</g>
</svg>
