<svg width="20" height="20" viewBox="0 0 20 20" fill="none" xmlns="http://www.w3.org/2000/svg">
<g id="icon-replay-normal">
<g id="Group 39">
<path id="Vector" d="M8.80015 12.937L12.627 10.2268C12.7898 10.1105 12.7898 9.8895 12.627 9.77318L8.80015 7.06301C8.59078 6.9118 8.29999 7.05138 8.29999 7.28401V12.716C8.29999 12.9486 8.60241 13.0882 8.80015 12.937Z" fill="#151727"/>
<path id="Vector_2" d="M9.99999 2.30005C8.55015 2.30005 7.16259 2.70351 5.96975 3.43588L5.18749 2.7813C4.86121 2.4366 4.28496 2.56378 4.13322 3.01285L3.49722 5.89174C3.40688 6.11891 3.48669 6.38643 3.69983 6.52588C3.94366 6.68464 4.26906 6.61622 4.42782 6.37239C5.66276 4.48138 7.74498 3.35256 9.99999 3.35256C13.6654 3.35256 16.6475 6.33468 16.6475 10C16.6475 13.6654 13.6654 16.6475 9.99999 16.6475C6.33462 16.6475 3.3525 13.6654 3.3525 10C3.3525 9.70973 3.11656 9.47379 2.82624 9.47379C2.53593 9.47379 2.29999 9.70973 2.29999 10C2.29999 14.2461 5.75398 17.7 9.99999 17.7C14.246 17.7 17.7 14.2461 17.7 10C17.7 5.75404 14.246 2.30005 9.99999 2.30005Z" fill="#151727"/>
</g>
</g>
</svg>
