<svg width="20" height="20" viewBox="0 0 20 20" fill="none" xmlns="http://www.w3.org/2000/svg">
<g id="icon-first-order-time">
<path id="time-forward" d="M13.3334 5.20833H14.8725C14.0802 4.40245 13.101 3.80487 12.022 3.46872C10.9429 3.13258 9.79759 3.06829 8.68774 3.28158C7.57789 3.49487 6.53794 3.97912 5.66039 4.69128C4.78284 5.40343 4.09488 6.32141 3.65769 7.36359C3.22049 8.40576 3.04762 9.53982 3.15445 10.6649C3.26127 11.79 3.64448 12.8713 4.26999 13.8126C4.8955 14.7538 5.74393 15.5259 6.73982 16.0602C7.73572 16.5945 8.84821 16.8744 9.97837 16.875C11.2554 16.8807 12.5081 16.5254 13.5921 15.8501C14.676 15.1749 15.5471 14.2071 16.105 13.0583C16.178 12.9094 16.3071 12.7955 16.464 12.7417C16.6209 12.688 16.7927 12.6987 16.9417 12.7717C17.0907 12.8446 17.2046 12.9737 17.2583 13.1306C17.3121 13.2875 17.3013 13.4594 17.2284 13.6083C16.5681 14.9677 15.5372 16.1128 14.2546 16.9119C12.9719 17.711 11.4896 18.1315 9.97837 18.125C8.61994 18.1292 7.28212 17.7928 6.08729 17.1464C4.89246 16.5001 3.87876 15.5645 3.13891 14.4252C2.39905 13.2859 1.95666 11.9793 1.85219 10.6249C1.74772 9.27045 1.98451 7.91145 2.54091 6.67218C3.0973 5.43291 3.95554 4.35292 5.03712 3.531C6.1187 2.70907 7.3891 2.17145 8.73212 1.96731C10.0751 1.76316 11.4479 1.89901 12.7249 2.36243C14.0018 2.82584 15.1422 3.60203 16.0417 4.62V2.5C16.0417 2.33424 16.1076 2.17527 16.2248 2.05806C16.342 1.94085 16.5009 1.875 16.6667 1.875C16.8325 1.875 16.9914 1.94085 17.1087 2.05806C17.2259 2.17527 17.2917 2.33424 17.2917 2.5V5.83333C17.2917 5.99909 17.2259 6.15806 17.1087 6.27528C16.9914 6.39249 16.8325 6.45833 16.6667 6.45833H13.3334C13.1676 6.45833 13.0086 6.39249 12.8914 6.27528C12.7742 6.15806 12.7084 5.99909 12.7084 5.83333C12.7084 5.66757 12.7742 5.5086 12.8914 5.39139C13.0086 5.27418 13.1676 5.20833 13.3334 5.20833ZM10 6.04167C9.83428 6.04167 9.67531 6.10751 9.5581 6.22472C9.44089 6.34194 9.37504 6.50091 9.37504 6.66667V10C9.37498 10.0821 9.39114 10.1633 9.42261 10.2391C9.45407 10.3149 9.50021 10.3838 9.55837 10.4417L11.225 12.1083C11.3435 12.2187 11.5002 12.2788 11.6621 12.276C11.8241 12.2731 11.9785 12.2075 12.0931 12.093C12.2076 11.9785 12.2732 11.824 12.276 11.6621C12.2789 11.5002 12.2188 11.3435 12.1084 11.225L10.625 9.74083V6.66667C10.625 6.50091 10.5592 6.34194 10.442 6.22472C10.3248 6.10751 10.1658 6.04167 10 6.04167Z" fill="#25314C" stroke="#25314C" stroke-width="0.7"/>
</g>
</svg>
