<svg width="20" height="20" viewBox="0 0 20 20" fill="none" xmlns="http://www.w3.org/2000/svg">
<g id="icon-eye-closed">
<path id="eye-closed" d="M15.8385 9.95757L17.1876 11.9876C17.2794 12.1257 17.3124 12.2946 17.2796 12.4571C17.2468 12.6197 17.1508 12.7625 17.0126 12.8542C16.8745 12.946 16.7056 12.979 16.5431 12.9462C16.3805 12.9134 16.2377 12.8174 16.146 12.6792L14.8468 10.7251C14.1516 11.185 13.3896 11.535 12.5876 11.7626L13.1068 13.8459C13.1468 14.0068 13.1213 14.177 13.0358 14.3191C12.9503 14.4611 12.8119 14.5634 12.651 14.6034C12.4901 14.6434 12.3199 14.6179 12.1778 14.5324C12.0358 14.4469 11.9335 14.3085 11.8935 14.1476L11.3651 12.0192C10.9132 12.0863 10.457 12.1216 10.0001 12.1251C9.54331 12.1227 9.0872 12.0885 8.63514 12.0226L8.1068 14.1509C8.087 14.2306 8.05169 14.3056 8.0029 14.3716C7.95411 14.4376 7.8928 14.4934 7.82246 14.5357C7.75212 14.578 7.67413 14.6061 7.59295 14.6183C7.51176 14.6305 7.42897 14.6265 7.3493 14.6067C7.26964 14.5869 7.19465 14.5516 7.12862 14.5028C7.0626 14.454 7.00683 14.3927 6.9645 14.3224C6.92218 14.252 6.89412 14.1741 6.88193 14.0929C6.86974 14.0117 6.87366 13.9289 6.89347 13.8492L7.41264 11.7659C6.61052 11.5373 5.84849 11.1862 5.15347 10.7251L3.8543 12.6792C3.76258 12.8174 3.61975 12.9134 3.45721 12.9462C3.29468 12.979 3.12577 12.946 2.98764 12.8542C2.8495 12.7625 2.75346 12.6197 2.72065 12.4571C2.68783 12.2946 2.72092 12.1257 2.81264 11.9876L4.1618 9.95757C3.17132 9.05712 2.39998 7.94201 1.9068 6.69757C1.8542 6.54032 1.86622 6.36861 1.94022 6.22022C2.01422 6.07183 2.14414 5.95892 2.30139 5.90632C2.45864 5.85372 2.63035 5.86574 2.77873 5.93973C2.92712 6.01373 3.04004 6.14365 3.09264 6.3009C3.55747 7.48687 4.32558 8.52999 5.32014 9.3259L5.33347 9.3334C5.3418 9.3384 5.34597 9.3484 5.3543 9.35423C6.68117 10.3818 8.32247 10.9191 10.0001 10.8751C11.6793 10.9189 13.322 10.3804 14.6493 9.3509C14.6576 9.34507 14.6618 9.33507 14.6701 9.33007L14.6801 9.3259C15.6747 8.52999 16.4428 7.48687 16.9076 6.3009C16.9602 6.14365 17.0732 6.01373 17.2215 5.93973C17.3699 5.86574 17.5416 5.85372 17.6989 5.90632C17.8561 5.95892 17.9861 6.07183 18.0601 6.22022C18.1341 6.36861 18.1461 6.54032 18.0935 6.69757C17.6003 7.94201 16.8289 9.05712 15.8385 9.95757Z" fill="#25314C" stroke="#25314C" stroke-width="0.7"/>
</g>
</svg>
