<svg width="20" height="20" viewBox="0 0 20 20" fill="none" xmlns="http://www.w3.org/2000/svg">
<g id="icon- batchmanage-selected">
<path id="Vector" d="M17.5 4.58337H10" stroke="#1CD1AD" stroke-width="1.8" stroke-linecap="round" stroke-linejoin="round"/>
<path id="Vector_2" d="M6.66667 3.33337L4.314 5.77237C4.29465 5.79172 4.27168 5.80707 4.24641 5.81755C4.22112 5.82802 4.19403 5.83342 4.16667 5.83342C4.1393 5.83342 4.11221 5.82802 4.08692 5.81755C4.06165 5.80707 4.03868 5.79172 4.01933 5.77237L2.5 4.25304" stroke="#1CD1AD" stroke-width="1.8" stroke-linecap="round" stroke-linejoin="round"/>
<path id="Vector_3" d="M17.5 10H10" stroke="#1CD1AD" stroke-width="1.8" stroke-linecap="round" stroke-linejoin="round"/>
<path id="Vector_4" d="M6.66667 8.75L4.314 11.189C4.29465 11.2083 4.27168 11.2237 4.24641 11.2342C4.22112 11.2447 4.19403 11.25 4.16667 11.25C4.1393 11.25 4.11221 11.2447 4.08692 11.2342C4.06165 11.2237 4.03868 11.2083 4.01933 11.189L2.5 9.66967" stroke="#1CD1AD" stroke-width="1.8" stroke-linecap="round" stroke-linejoin="round"/>
<path id="Vector_5" d="M17.5 15.4166H10" stroke="#1CD1AD" stroke-width="1.8" stroke-linecap="round" stroke-linejoin="round"/>
<path id="Vector_6" d="M6.66667 14.1666L4.314 16.6056C4.29465 16.625 4.27168 16.6403 4.24641 16.6508C4.22112 16.6613 4.19403 16.6666 4.16667 16.6666C4.1393 16.6666 4.11221 16.6613 4.08692 16.6508C4.06165 16.6403 4.03868 16.625 4.01933 16.6056L2.5 15.0863" stroke="#1CD1AD" stroke-width="1.8" stroke-linecap="round" stroke-linejoin="round"/>
</g>
</svg>
