<svg width="87" height="22" viewBox="0 0 87 22" fill="none" xmlns="http://www.w3.org/2000/svg">
<g id="pro&#228;&#188;&#154;&#229;&#145;&#152;&#230;&#150;&#135;&#230;&#161;&#136;">
<g id="diamond-filled 1" clip-path="url(#clip0_1805_4103)">
<path id="Vector" d="M16.6669 3C16.805 3 16.9412 3.03116 17.0655 3.09116C17.1897 3.15116 17.2989 3.23844 17.3847 3.3465L17.4525 3.4455L20.2025 8.02883C20.2926 8.17912 20.3377 8.35208 20.3325 8.52721C20.3273 8.70234 20.272 8.87232 20.1732 9.017L20.0999 9.11142L12.2807 17.85C12.1355 17.9981 11.9622 18.1158 11.771 18.196C11.5797 18.2763 11.3744 18.3176 11.1669 18.3175C10.8003 18.3175 10.4474 18.1892 10.1494 17.9352L10.0257 17.8198L2.23403 9.11142C2.11681 8.98062 2.03963 8.81891 2.01168 8.64551C1.98373 8.47211 2.00618 8.29434 2.07637 8.13333L2.13137 8.02792L4.89328 3.42442L4.95195 3.34192C4.99391 3.28972 5.04157 3.24237 5.09403 3.20075L5.17562 3.14208L5.25628 3.09625L5.30212 3.07517L5.35712 3.05225L5.45703 3.02292L5.5597 3.00458L5.66695 3H16.6669Z" fill="url(#paint0_linear_1805_4103)"/>
<path id="Vector_2" d="M7.66099 7.17829C7.89663 7.11934 8.14603 7.15632 8.35442 7.28111C8.54705 7.39654 8.69061 7.57865 8.75786 7.79291C8.82511 8.00716 8.81137 8.23865 8.71926 8.44345L8.66884 8.53786L8.46901 8.87061L9.84492 10.3831C9.99519 10.5483 10.08 10.7627 10.0833 10.986C10.0867 11.2093 10.0085 11.4262 9.86326 11.5959L9.78351 11.6784C9.61829 11.8286 9.4039 11.9134 9.1806 11.9168C8.95729 11.9202 8.74044 11.8419 8.57076 11.6967L8.48826 11.616L6.65492 9.59936C6.53641 9.4688 6.45806 9.30682 6.42928 9.13285C6.4005 8.95888 6.42251 8.78031 6.49267 8.61853L6.54767 8.5122L7.09767 7.59553C7.22275 7.38731 7.42536 7.23724 7.66099 7.17829Z" fill="white"/>
</g>
<g id="Pro&#228;&#188;&#154;&#229;&#145;&#152;" filter="url(#filter0_d_1805_4103)">
<path d="M32.136 4.13C33.384 4.142 34.344 4.442 35.016 5.03C35.7 5.606 36.042 6.44 36.042 7.532C36.042 7.832 36.03 8.066 36.006 8.234L35.898 9.152C35.73 10.472 35.226 11.486 34.386 12.194C33.546 12.89 32.424 13.244 31.02 13.256H27.348L26.808 17.648H24.684L26.34 4.13H32.136ZM31.308 11.276C32.052 11.264 32.622 11.102 33.018 10.79C33.414 10.466 33.66 9.956 33.756 9.26L33.9 8.162C33.912 8.078 33.918 7.964 33.918 7.82C33.918 7.232 33.756 6.806 33.432 6.542C33.12 6.266 32.628 6.122 31.956 6.11H28.23L27.582 11.276H31.308ZM42.1292 9.584C41.3852 9.56 40.9052 9.548 40.6892 9.548C39.9212 9.548 39.3452 9.734 38.9612 10.106C38.5772 10.466 38.3372 11.066 38.2412 11.906L37.5212 17.648H35.4512L36.1532 11.96C36.3332 10.436 36.7892 9.332 37.5212 8.648C38.2652 7.964 39.3992 7.622 40.9232 7.622C41.5232 7.622 42.0332 7.64 42.4532 7.676L42.1292 9.584ZM41.8308 11.888C42.1788 8.996 43.7688 7.55 46.6008 7.55H47.4648C49.9488 7.55 51.1908 8.69 51.1908 10.97C51.1908 11.246 51.1728 11.546 51.1368 11.87L50.9568 13.382C50.6088 16.274 49.0188 17.72 46.1868 17.72H45.3228C42.8388 17.72 41.5968 16.58 41.5968 14.3C41.5968 14.024 41.6148 13.724 41.6508 13.4L41.8308 11.888ZM46.4208 15.794C47.8608 15.794 48.6768 15.008 48.8688 13.436L49.0668 11.816C49.0908 11.576 49.1028 11.408 49.1028 11.312C49.1028 10.088 48.4788 9.476 47.2308 9.476H46.3668C44.9268 9.476 44.1108 10.262 43.9188 11.834L43.7208 13.454C43.6968 13.694 43.6848 13.862 43.6848 13.958C43.6848 15.182 44.3088 15.794 45.5568 15.794H46.4208ZM63.6904 2.996C63.9424 2.996 64.1524 3.05 64.3204 3.158C64.5004 3.254 64.6744 3.428 64.8424 3.68L68.8924 9.944L66.8224 10.196L63.4564 4.688H59.6584L55.1764 10.268L53.0164 9.998L58.1644 3.644C58.3324 3.404 58.5064 3.236 58.6864 3.14C58.8784 3.044 59.0884 2.996 59.3164 2.996H63.6904ZM57.8764 7.496H64.7704L64.5904 9.116H57.6964L57.8764 7.496ZM64.4464 17.288C61.0504 17.72 58.2244 17.972 55.9684 18.044C55.5724 18.056 55.2604 17.966 55.0324 17.774C54.8044 17.582 54.6904 17.33 54.6904 17.018C54.6904 16.694 54.8524 16.376 55.1764 16.064C56.2204 15.092 57.2164 13.946 58.1644 12.626H54.2944L54.4924 10.934H67.9924L67.7944 12.626H60.3784C59.8624 13.322 59.3404 13.982 58.8124 14.606C58.6804 14.774 58.2724 15.224 57.5884 15.956L57.3004 16.262C59.2684 16.166 61.3924 15.968 63.6724 15.668L62.6284 13.472H64.4824L66.8764 18.188H64.8784L64.4464 17.288ZM83.7324 7.838H72.9324L73.3644 4.364C73.4364 3.62 73.8864 3.248 74.7144 3.248H82.6344C83.6424 3.248 84.1464 3.644 84.1464 4.436C84.1464 4.556 84.1404 4.646 84.1284 4.706L83.7324 7.838ZM74.8404 6.362H82.1844L82.4184 4.742H75.0744L74.8404 6.362ZM73.4724 14.498H71.6724L72.1584 10.484C72.2904 9.44 72.8184 8.918 73.7424 8.918H82.7244C83.7324 8.918 84.2364 9.41 84.2364 10.394C84.2364 10.562 84.2304 10.688 84.2184 10.772L83.7864 14.498H81.9684L82.4544 10.466H73.9584L73.4724 14.498ZM83.4984 18.314C82.8624 17.894 81.9384 17.336 80.7264 16.64C79.4784 15.944 78.4284 15.362 77.5764 14.894C76.8444 15.818 75.8364 16.604 74.5524 17.252C73.4844 17.804 72.3444 18.212 71.1324 18.476L70.0524 17.072C70.7604 16.952 71.4864 16.748 72.2304 16.46C72.9864 16.172 73.6884 15.818 74.3364 15.398C75.0204 14.954 75.5964 14.474 76.0644 13.958C76.5324 13.43 76.8384 12.872 76.9824 12.284L77.1804 11.186H78.9084L78.7464 12.374C78.6624 12.77 78.5364 13.166 78.3684 13.562C79.2204 13.994 80.4384 14.636 82.0224 15.488C83.1144 16.088 84.1164 16.682 85.0284 17.27L83.4984 18.314Z" fill="url(#paint1_linear_1805_4103)"/>
</g>
</g>
<defs>
<filter id="filter0_d_1805_4103" x="24.6841" y="2.99597" width="60.3442" height="16.48" filterUnits="userSpaceOnUse" color-interpolation-filters="sRGB">
<feFlood flood-opacity="0" result="BackgroundImageFix"/>
<feColorMatrix in="SourceAlpha" type="matrix" values="0 0 0 0 0 0 0 0 0 0 0 0 0 0 0 0 0 0 127 0" result="hardAlpha"/>
<feOffset dy="1"/>
<feComposite in2="hardAlpha" operator="out"/>
<feColorMatrix type="matrix" values="0 0 0 0 1 0 0 0 0 1 0 0 0 0 1 0 0 0 1 0"/>
<feBlend mode="normal" in2="BackgroundImageFix" result="effect1_dropShadow_1805_4103"/>
<feBlend mode="normal" in="SourceGraphic" in2="effect1_dropShadow_1805_4103" result="shape"/>
</filter>
<linearGradient id="paint0_linear_1805_4103" x1="26.0168" y1="13.0833" x2="7.86684" y2="2.63329" gradientUnits="userSpaceOnUse">
<stop stop-color="#FFBC3B"/>
<stop offset="0.477095" stop-color="#F7933A"/>
<stop offset="1" stop-color="#FFB82F"/>
</linearGradient>
<linearGradient id="paint1_linear_1805_4103" x1="24" y1="5" x2="86.6791" y2="18.9425" gradientUnits="userSpaceOnUse">
<stop stop-color="#F6923B"/>
<stop offset="1" stop-color="#FA931C"/>
</linearGradient>
<clipPath id="clip0_1805_4103">
<rect width="22" height="22" fill="white"/>
</clipPath>
</defs>
</svg>
