<svg width="28" height="28" viewBox="0 0 28 28" fill="none" xmlns="http://www.w3.org/2000/svg">
<g id="icon-keyboard">
<path id="Vector" d="M14.0489 25.6564C10.9436 25.6564 8.02714 24.4487 5.83362 22.2551C3.64009 20.0616 2.43237 17.1452 2.43237 14.0399C2.43237 10.9345 3.64009 8.018 5.83362 5.82447C10.3602 1.29777 17.7377 1.29777 22.2643 5.82447C26.791 10.3512 26.791 17.7285 22.2643 22.2551C20.0707 24.4487 17.1543 25.6564 14.049 25.6564H14.0489ZM14.0489 4.16492C11.5185 4.16492 8.98832 5.13435 7.06585 7.0567C5.201 8.92167 4.17407 11.3945 4.17407 14.0399C4.17407 16.6852 5.201 19.1579 7.06585 21.0229C8.93081 22.8877 11.4118 23.9228 14.0489 23.9147C16.6944 23.9147 19.1671 22.8877 21.0319 21.0229C24.885 17.1698 24.885 10.9098 21.0319 7.05682C19.1096 5.13435 16.5792 4.16504 14.0489 4.16504V4.16492Z" fill="#333333"/>
<path id="Vector_2" d="M8.71368 9.34351H9.98007C10.2821 9.34351 10.5145 9.57587 10.5145 9.86633V11.1327C10.5145 11.4232 10.2821 11.6555 9.99169 11.6555H8.71368C8.42322 11.6672 8.19086 11.4348 8.19086 11.1443V9.86633C8.19086 9.57587 8.42322 9.34351 8.71368 9.34351ZM13.361 9.34351H14.6274C14.9294 9.34351 15.1618 9.57587 15.1618 9.86633V11.1327C15.1618 11.4232 14.9294 11.6555 14.639 11.6555H13.361C13.0705 11.6672 12.8382 11.4348 12.8382 11.1443V9.86633C12.8382 9.57587 13.0705 9.34351 13.361 9.34351ZM18.0083 9.34351H19.2747C19.5767 9.34351 19.8091 9.57587 19.8091 9.86633V11.1327C19.8091 11.4232 19.5767 11.6555 19.2863 11.6555H18.0083C17.7178 11.6672 17.4855 11.4348 17.4855 11.1443V9.86633C17.4855 9.57587 17.7178 9.34351 18.0083 9.34351ZM8.71368 12.829H9.98007C10.2705 12.829 10.5029 13.0613 10.5029 13.3518V14.6182C10.5029 14.9086 10.2705 15.141 9.98007 15.141H8.71368C8.42322 15.1526 8.19086 14.9203 8.19086 14.6298V13.3518C8.19086 13.0613 8.42322 12.829 8.71368 12.829ZM13.361 12.829H14.6274C14.9178 12.829 15.1502 13.0613 15.1502 13.3518V14.6182C15.1502 14.9086 14.9178 15.141 14.6274 15.141H13.361C13.0705 15.1526 12.8382 14.9203 12.8382 14.6298V13.3518C12.8382 13.0613 13.0705 12.829 13.361 12.829ZM18.0083 12.829H19.2747C19.5651 12.829 19.7975 13.0613 19.7975 13.3518V14.6182C19.7975 14.9086 19.5651 15.141 19.2747 15.141H18.0083C17.7178 15.1526 17.4855 14.9203 17.4855 14.6298V13.3518C17.4855 13.0613 17.7178 12.829 18.0083 12.829ZM12.5477 18.0572H15.4523C15.9286 18.0572 16.3236 18.4522 16.3236 18.9286C16.3236 19.4049 15.9286 19.7999 15.4523 19.7999H12.5477C12.0714 19.7999 11.6763 19.4049 11.6763 18.9286C11.6763 18.4522 12.0714 18.0572 12.5477 18.0572Z" fill="#333333"/>
</g>
</svg>
