<svg width="20" height="20" viewBox="0 0 20 20" fill="none" xmlns="http://www.w3.org/2000/svg">
<g id="icon-inverse-order-time-selected">
<path id="time-past" d="M10.625 6.66667V9.74083L12.1083 11.225C12.1697 11.2822 12.219 11.3512 12.2532 11.4279C12.2873 11.5046 12.3057 11.5873 12.3072 11.6712C12.3086 11.7552 12.2932 11.8385 12.2618 11.9163C12.2303 11.9942 12.1836 12.0648 12.1242 12.1242C12.0649 12.1835 11.9942 12.2303 11.9163 12.2618C11.8385 12.2932 11.7552 12.3086 11.6712 12.3072C11.5873 12.3057 11.5046 12.2873 11.4279 12.2532C11.3512 12.219 11.2822 12.1697 11.225 12.1083L9.55834 10.4417C9.50017 10.3838 9.45403 10.3149 9.42257 10.2391C9.39111 10.1633 9.37494 10.0821 9.375 10V6.66667C9.375 6.50091 9.44085 6.34193 9.55806 6.22472C9.67527 6.10751 9.83424 6.04167 10 6.04167C10.1658 6.04167 10.3247 6.10751 10.4419 6.22472C10.5592 6.34193 10.625 6.50091 10.625 6.66667ZM10.0217 1.875C8.87393 1.87501 7.73939 2.11987 6.6938 2.59322C5.64821 3.06658 4.71564 3.75755 3.95834 4.62V2.5C3.95834 2.33424 3.89249 2.17527 3.77528 2.05806C3.65807 1.94085 3.4991 1.875 3.33334 1.875C3.16758 1.875 3.00861 1.94085 2.8914 2.05806C2.77419 2.17527 2.70834 2.33424 2.70834 2.5V5.83333C2.70834 5.99909 2.77419 6.15806 2.8914 6.27528C3.00861 6.39249 3.16758 6.45833 3.33334 6.45833H6.66667C6.83243 6.45833 6.9914 6.39249 7.10861 6.27528C7.22582 6.15806 7.29167 5.99909 7.29167 5.83333C7.29167 5.66757 7.22582 5.5086 7.10861 5.39139C6.9914 5.27418 6.83243 5.20833 6.66667 5.20833H5.1275C5.91985 4.40245 6.89907 3.80487 7.97809 3.46872C9.0571 3.13258 10.2025 3.06829 11.3123 3.28158C12.4222 3.49487 13.4621 3.97912 14.3397 4.69128C15.2172 5.40343 15.9052 6.32141 16.3424 7.36359C16.7796 8.40576 16.9524 9.53982 16.8456 10.6649C16.7388 11.79 16.3556 12.8713 15.7301 13.8126C15.1045 14.7538 14.2561 15.5259 13.2602 16.0602C12.2643 16.5945 11.1518 16.8744 10.0217 16.875C8.7446 16.8807 7.49192 16.5254 6.40797 15.8501C5.32401 15.1749 4.4529 14.2071 3.895 13.0583C3.82207 12.9094 3.69295 12.7955 3.53604 12.7417C3.37914 12.688 3.2073 12.6987 3.05834 12.7717C2.90937 12.8446 2.79549 12.9737 2.74173 13.1306C2.68796 13.2875 2.69874 13.4594 2.77167 13.6083C3.43197 14.9677 4.46283 16.1128 5.74549 16.9119C7.02816 17.711 8.51047 18.1315 10.0217 18.125C12.1766 18.125 14.2432 17.269 15.7669 15.7452C17.2906 14.2215 18.1467 12.1549 18.1467 10C18.1467 7.84512 17.2906 5.77849 15.7669 4.25476C14.2432 2.73102 12.1766 1.875 10.0217 1.875Z" fill="#1CD1AD" stroke="#1CD1AD" stroke-width="0.7"/>
</g>
</svg>
