<svg width="16" height="16" viewBox="0 0 16 16" fill="none" xmlns="http://www.w3.org/2000/svg">
<g id="icon-voice-selected">
<path id="volume-high" d="M2.33337 4.66667H3.51137C3.82706 4.6667 4.13251 4.55473 4.37337 4.35067L6.83404 2.26667C6.99604 2.12953 7.19386 2.04156 7.40419 2.01312C7.61453 1.98468 7.82861 2.01696 8.02121 2.10615C8.21381 2.19534 8.3769 2.33772 8.49127 2.51652C8.60563 2.69532 8.6665 2.90309 8.66671 3.11534V12.8847C8.66661 13.097 8.60577 13.305 8.49137 13.4839C8.37698 13.6628 8.21379 13.8053 8.02107 13.8945C7.82834 13.9837 7.61413 14.0159 7.40368 13.9874C7.19324 13.9588 6.99536 13.8707 6.83337 13.7333L4.37337 11.6487C4.13242 11.4449 3.82697 11.3331 3.51137 11.3333H2.33337C2.06816 11.3333 1.8138 11.228 1.62627 11.0404C1.43873 10.8529 1.33337 10.5986 1.33337 10.3333V5.66667C1.33337 5.40145 1.43873 5.1471 1.62627 4.95956C1.8138 4.77203 2.06816 4.66667 2.33337 4.66667ZM11.178 11.18C11.597 10.763 11.9295 10.2674 12.1564 9.72156C12.3832 9.17572 12.5 8.59044 12.5 7.99934C12.5 7.40823 12.3832 6.82295 12.1564 6.27711C11.9295 5.73127 11.597 5.23564 11.178 4.81867C11.1319 4.77098 11.0766 4.73298 11.0156 4.70686C10.9545 4.68075 10.8889 4.66705 10.8225 4.66657C10.7561 4.66609 10.6903 4.67883 10.6289 4.70406C10.5675 4.72929 10.5117 4.76649 10.4649 4.8135C10.418 4.86051 10.3809 4.91639 10.3559 4.97787C10.3308 5.03935 10.3183 5.10521 10.3189 5.17159C10.3196 5.23798 10.3335 5.30357 10.3598 5.36453C10.3861 5.42549 10.4242 5.48061 10.472 5.52667C10.7978 5.85079 11.0563 6.23609 11.2327 6.66043C11.4091 7.08477 11.4999 7.53979 11.4999 7.99934C11.4999 8.45888 11.4091 8.9139 11.2327 9.33824C11.0563 9.76258 10.7978 10.1479 10.472 10.472C10.4242 10.5181 10.3861 10.5732 10.3598 10.6341C10.3335 10.6951 10.3196 10.7607 10.3189 10.8271C10.3183 10.8935 10.3308 10.9593 10.3559 11.0208C10.3809 11.0823 10.418 11.1382 10.4649 11.1852C10.5117 11.2322 10.5675 11.2694 10.6289 11.2946C10.6903 11.3198 10.7561 11.3326 10.8225 11.3321C10.8889 11.3316 10.9545 11.3179 11.0156 11.2918C11.0766 11.2657 11.1319 11.2277 11.178 11.18ZM12.7114 13.2127C12.6125 13.2126 12.5158 13.1832 12.4336 13.1281C12.3514 13.0731 12.2874 12.9949 12.2497 12.9035C12.2119 12.8121 12.2021 12.7115 12.2215 12.6146C12.2409 12.5176 12.2887 12.4285 12.3587 12.3587C12.9319 11.7866 13.3866 11.1071 13.6968 10.359C14.0071 9.61102 14.1668 8.80915 14.1668 7.99934C14.1668 7.18952 14.0071 6.38766 13.6968 5.63963C13.3866 4.8916 12.9319 4.2121 12.3587 3.64C12.3123 3.59351 12.2755 3.53834 12.2504 3.47764C12.2254 3.41693 12.2125 3.35188 12.2125 3.2862C12.2126 3.22052 12.2256 3.15549 12.2508 3.09483C12.276 3.03417 12.3129 2.97907 12.3594 2.93267C12.4059 2.88627 12.461 2.84948 12.5217 2.8244C12.5824 2.79932 12.6475 2.78645 12.7132 2.78651C12.7789 2.78657 12.8439 2.79957 12.9045 2.82476C12.9652 2.84995 13.0203 2.88685 13.0667 2.93334C13.7329 3.59825 14.2614 4.38801 14.622 5.25741C14.9826 6.12681 15.1682 7.05879 15.1682 8C15.1682 8.94122 14.9826 9.87319 14.622 10.7426C14.2614 11.612 13.7329 12.4018 13.0667 13.0667C13.0201 13.1134 12.9647 13.1504 12.9037 13.1756C12.8427 13.2007 12.7774 13.2129 12.7114 13.2127Z" fill="#1CD1AD"/>
</g>
</svg>
