<svg width="14" height="14" viewBox="0 0 14 14" fill="none" xmlns="http://www.w3.org/2000/svg">
<g id="icon-voice-white">
<path id="volume-high" d="M2.04169 4.08334H3.07244C3.34866 4.08337 3.61593 3.98539 3.82669 3.80684L5.97977 1.98334C6.12152 1.86335 6.29461 1.78637 6.47865 1.76149C6.6627 1.7366 6.85002 1.76484 7.01854 1.84288C7.18707 1.92092 7.32977 2.04551 7.42984 2.20196C7.52991 2.35841 7.58317 2.54021 7.58335 2.72592V11.2741C7.58327 11.4599 7.53004 11.6418 7.42994 11.7984C7.32984 11.955 7.18705 12.0796 7.01842 12.1577C6.84979 12.2357 6.66235 12.2639 6.47821 12.239C6.29407 12.214 6.12092 12.1368 5.97919 12.0167L3.82669 10.1926C3.61585 10.0143 3.34859 9.91648 3.07244 9.91667H2.04169C1.80962 9.91667 1.58706 9.82449 1.42297 9.66039C1.25887 9.4963 1.16669 9.27374 1.16669 9.04167V4.95834C1.16669 4.72628 1.25887 4.50372 1.42297 4.33962C1.58706 4.17553 1.80962 4.08334 2.04169 4.08334ZM9.78077 9.78251C10.1474 9.41766 10.4383 8.98398 10.6368 8.50637C10.8353 8.02876 10.9375 7.51664 10.9375 6.99942C10.9375 6.48221 10.8353 5.97008 10.6368 5.49248C10.4383 5.01487 10.1474 4.58119 9.78077 4.21634C9.74035 4.17462 9.69203 4.14136 9.63862 4.11851C9.58521 4.09566 9.52779 4.08367 9.4697 4.08325C9.41161 4.08283 9.35402 4.09398 9.30029 4.11606C9.24655 4.13813 9.19775 4.17068 9.15673 4.21182C9.11572 4.25295 9.0833 4.30184 9.06138 4.35564C9.03946 4.40944 9.02847 4.46706 9.02905 4.52515C9.02964 4.58324 9.04179 4.64062 9.06479 4.69397C9.08779 4.74731 9.12118 4.79554 9.16302 4.83584C9.44808 5.11944 9.67428 5.45658 9.82863 5.82788C9.98298 6.19918 10.0624 6.59732 10.0624 6.99942C10.0624 7.40153 9.98298 7.79967 9.82863 8.17097C9.67428 8.54226 9.44808 8.8794 9.16302 9.16301C9.12118 9.20331 9.08779 9.25154 9.06479 9.30488C9.04179 9.35822 9.02964 9.41561 9.02905 9.4737C9.02847 9.53179 9.03946 9.58941 9.06138 9.64321C9.0833 9.697 9.11572 9.74589 9.15673 9.78703C9.19775 9.82816 9.24655 9.86072 9.30029 9.88279C9.35402 9.90487 9.41161 9.91602 9.4697 9.9156C9.52779 9.91518 9.58521 9.90319 9.63862 9.88034C9.69203 9.85749 9.74035 9.82423 9.78077 9.78251ZM11.1224 11.5611C11.0359 11.561 10.9513 11.5353 10.8794 11.4871C10.8075 11.439 10.7515 11.3706 10.7184 11.2906C10.6854 11.2106 10.6768 11.1226 10.6938 11.0377C10.7108 10.9529 10.7526 10.875 10.8139 10.8138C11.3154 10.3133 11.7132 9.71869 11.9847 9.06417C12.2562 8.40964 12.3959 7.70801 12.3959 6.99942C12.3959 6.29084 12.2562 5.5892 11.9847 4.93468C11.7132 4.28016 11.3154 3.68559 10.8139 3.18501C10.7733 3.14433 10.7411 3.09605 10.7191 3.04294C10.6972 2.98982 10.6859 2.9329 10.686 2.87543C10.686 2.81796 10.6974 2.76106 10.7194 2.70798C10.7415 2.6549 10.7738 2.60669 10.8144 2.56609C10.8551 2.52549 10.9034 2.4933 10.9565 2.47135C11.0096 2.44941 11.0665 2.43815 11.124 2.4382C11.1815 2.43825 11.2384 2.44963 11.2915 2.47167C11.3445 2.49371 11.3928 2.526 11.4334 2.56667C12.0162 3.14848 12.4787 3.83951 12.7942 4.60024C13.1097 5.36097 13.2721 6.17644 13.2721 7.00001C13.2721 7.82357 13.1097 8.63905 12.7942 9.39977C12.4787 10.1605 12.0162 10.8515 11.4334 11.4333C11.3926 11.4742 11.3441 11.5066 11.2907 11.5286C11.2374 11.5507 11.1802 11.5613 11.1224 11.5611Z" fill="white"/>
</g>
</svg>
