<svg width="16" height="16" viewBox="0 0 16 16" fill="none" xmlns="http://www.w3.org/2000/svg">
<g id="icon-change" clip-path="url(#clip0_1959_2448)">
<path id="Vector" fill-rule="evenodd" clip-rule="evenodd" d="M13.9997 1.17186C14.3679 1.17186 14.6664 1.47033 14.6664 1.83852V4.60028C14.6664 5.00529 14.3381 5.33362 13.9331 5.33362H11.1713C10.8031 5.33362 10.5046 5.03514 10.5046 4.66695C10.5046 4.29876 10.8031 4.00028 11.1713 4.00028H12.4539C10.6008 1.9233 7.48553 1.35732 4.9799 2.80393C3.24364 3.80636 2.19749 5.54504 2.00943 7.40052C1.97231 7.76686 1.64525 8.03372 1.27894 7.99659C0.912625 7.95946 0.645768 7.63239 0.682892 7.26612C0.912312 5.00255 2.19016 2.87499 4.31323 1.64923C7.32439 -0.0892551 11.056 0.550443 13.3331 2.98555V1.83852C13.3331 1.47033 13.6315 1.17186 13.9997 1.17186ZM2.00039 14.8282C1.63221 14.8282 1.33373 14.5297 1.33373 14.1615V11.3998C1.33373 10.9948 1.66205 10.6665 2.06706 10.6665H4.82882C5.19701 10.6665 5.49549 10.9649 5.49549 11.3331C5.49549 11.7013 5.19701 11.9998 4.82882 11.9998H3.54628C5.39933 14.0768 8.51459 14.6427 11.0202 13.1961C12.7565 12.1937 13.8026 10.4551 13.9907 8.59952C14.0278 8.23319 14.3549 7.96632 14.7212 8.00346C15.0875 8.04059 15.3543 8.36766 15.3172 8.73399C15.0878 10.9975 13.8099 13.1251 11.6869 14.3509C8.67572 16.0893 4.94414 15.4497 2.66706 13.0145V14.1615C2.66706 14.5297 2.36859 14.8282 2.00039 14.8282Z" fill="#333333"/>
</g>
<defs>
<clipPath id="clip0_1959_2448">
<rect width="16" height="16" fill="white"/>
</clipPath>
</defs>
</svg>
