<svg width="16" height="16" viewBox="0 0 16 16" fill="none" xmlns="http://www.w3.org/2000/svg">
<g id="icon-sound">
<path id="Vector" fill-rule="evenodd" clip-rule="evenodd" d="M13.915 3.39748C13.656 3.13586 13.2339 3.13378 12.9722 3.39284C12.7106 3.65191 12.7086 4.07402 12.9676 4.33564C13.4002 4.77247 13.7436 5.29141 13.9781 5.863C14.2125 6.43461 14.3333 7.04745 14.3333 7.66658C14.3333 8.28565 14.2125 8.89852 13.9781 9.47012C13.7436 10.0417 13.4002 10.5607 12.9676 10.9975C12.7086 11.2591 12.7106 11.6812 12.9722 11.9403C13.2339 12.1993 13.656 12.1973 13.915 11.9357C14.4708 11.3745 14.9113 10.7085 15.2117 9.97612C15.5121 9.24372 15.6666 8.45892 15.6666 7.66658C15.6666 6.87418 15.5121 6.08944 15.2117 5.35703C14.9113 4.62462 14.4708 3.9587 13.915 3.39748ZM12.0336 5.29748C11.7746 5.03586 11.3525 5.03378 11.0908 5.29284C10.8292 5.55191 10.8272 5.97402 11.0862 6.23564C11.2717 6.42296 11.4192 6.64568 11.5199 6.89125C11.6206 7.13685 11.6726 7.40032 11.6726 7.66658C11.6726 7.93278 11.6206 8.19625 11.5199 8.44185C11.4192 8.68745 11.2717 8.91019 11.0862 9.09752C10.8272 9.35912 10.8292 9.78118 11.0908 10.0403C11.3525 10.2993 11.7746 10.2973 12.0336 10.0357C12.3423 9.72392 12.5868 9.35425 12.7535 8.94785C12.9202 8.54145 13.0059 8.10605 13.0059 7.66658C13.0059 7.22705 12.9202 6.79172 12.7535 6.3853C12.5868 5.97889 12.3423 5.60919 12.0336 5.29748ZM4.33337 5.38976L8.33336 3.13976V12.1933L4.33337 9.94332V5.38976ZM3.00004 5.66653V9.66652H2.33337C1.96519 9.66652 1.66671 9.36805 1.66671 8.99985V6.3332C1.66671 5.96501 1.96519 5.66653 2.33337 5.66653H3.00004ZM8.17643 1.69824L3.49207 4.3332H2.33337C1.22881 4.3332 0.333374 5.22863 0.333374 6.3332V8.99985C0.333374 10.1045 1.22881 10.9999 2.33337 10.9999H3.49207L8.17643 13.6349C8.84303 14.0098 9.66669 13.5281 9.66669 12.7633V2.56981C9.66669 1.80498 8.84303 1.32328 8.17643 1.69824Z" fill="#151727"/>
</g>
</svg>
