<svg width="20" height="20" viewBox="0 0 20 20" fill="none" xmlns="http://www.w3.org/2000/svg">
<g id="icon- batchmanage-normal">
<path id="Vector" d="M17.5 4.58333H10" stroke="#25314C" stroke-width="1.8" stroke-linecap="round" stroke-linejoin="round"/>
<path id="Vector_2" d="M6.66667 3.33333L4.314 5.77233C4.29465 5.79168 4.27168 5.80703 4.24641 5.8175C4.22112 5.82798 4.19403 5.83337 4.16667 5.83337C4.1393 5.83337 4.11221 5.82798 4.08692 5.8175C4.06165 5.80703 4.03868 5.79168 4.01933 5.77233L2.5 4.25299" stroke="#25314C" stroke-width="1.8" stroke-linecap="round" stroke-linejoin="round"/>
<path id="Vector_3" d="M17.5 10H10" stroke="#25314C" stroke-width="1.8" stroke-linecap="round" stroke-linejoin="round"/>
<path id="Vector_4" d="M6.66667 8.75L4.314 11.189C4.29465 11.2083 4.27168 11.2237 4.24641 11.2342C4.22112 11.2447 4.19403 11.25 4.16667 11.25C4.1393 11.25 4.11221 11.2447 4.08692 11.2342C4.06165 11.2237 4.03868 11.2083 4.01933 11.189L2.5 9.66967" stroke="#25314C" stroke-width="1.8" stroke-linecap="round" stroke-linejoin="round"/>
<path id="Vector_5" d="M17.5 15.4167H10" stroke="#25314C" stroke-width="1.8" stroke-linecap="round" stroke-linejoin="round"/>
<path id="Vector_6" d="M6.66667 14.1667L4.314 16.6057C4.29465 16.625 4.27168 16.6403 4.24641 16.6508C4.22112 16.6613 4.19403 16.6667 4.16667 16.6667C4.1393 16.6667 4.11221 16.6613 4.08692 16.6508C4.06165 16.6403 4.03868 16.625 4.01933 16.6057L2.5 15.0863" stroke="#25314C" stroke-width="1.8" stroke-linecap="round" stroke-linejoin="round"/>
</g>
</svg>
