<svg width="24" height="24" viewBox="0 0 24 24" fill="none" xmlns="http://www.w3.org/2000/svg">
<g id="icon-random">
<path id="Vector" d="M16.8671 8.863H18.0302V10.8241L21 7.375L18.0311 4V6.23903H16.8682C13.5382 6.23903 11.3661 8.80507 9.70707 11.069C8.21804 13.1041 6.92908 15.0241 4.85203 15.0241H3V17.6491H4.8511C8.1811 17.6491 10.0601 14.9211 11.7201 12.6571C13.2091 10.621 14.7851 8.863 16.8671 8.863ZM7.84304 10.364L8.2741 9.77997C8.62799 9.29904 8.99814 8.78903 9.40106 8.28296C8.2081 7.1259 6.77202 6.27192 4.8511 6.27192H3V8.89599C3 8.89599 3.49904 8.87096 4.8511 8.89599C6.16004 8.92497 6.981 9.481 7.84302 10.364H7.84304ZM18.0311 15.1249H16.8682C15.6 15.1249 14.3341 14.39 13.427 13.415C13.3373 13.5405 13.246 13.6649 13.1531 13.7881C12.7551 14.331 12.3281 14.916 11.8571 15.4921C13.0812 16.732 14.8552 17.749 16.8682 17.749H18.0311V19.9999L21 16.545L18.0311 13.1762L18.0311 15.1249Z" fill="#151727"/>
</g>
</svg>
