<svg width="335" height="75" viewBox="0 0 335 75" fill="none" xmlns="http://www.w3.org/2000/svg">
<g id="&#228;&#188;&#154;&#229;&#145;&#152;banner">
<g id="Rectangle 39" filter="url(#filter0_i_1725_1582)">
<rect width="335" height="75" rx="8" fill="url(#paint0_linear_1725_1582)"/>
</g>
<g id="Mask group">
<mask id="mask0_1725_1582" style="mask-type:alpha" maskUnits="userSpaceOnUse" x="0" y="0" width="335" height="75">
<rect id="Rectangle 56" width="335" height="75" rx="8" fill="url(#paint1_linear_1725_1582)"/>
</mask>
<g mask="url(#mask0_1725_1582)">
<path id="PRO" opacity="0.3" d="M212.336 -4.37C220.517 -4.29134 226.811 -2.32467 231.216 1.53C235.7 5.306 237.942 10.7733 237.942 17.932C237.942 19.8987 237.863 21.4327 237.706 22.534L236.998 28.552C235.897 37.2053 232.593 43.8527 227.086 48.494C221.579 53.0567 214.224 55.3773 205.02 55.456H180.948L177.408 84.248H163.484L174.34 -4.37H212.336ZM206.908 42.476C211.785 42.3973 215.522 41.3353 218.118 39.29C220.714 37.166 222.327 33.8227 222.956 29.26L223.9 22.062C223.979 21.5113 224.018 20.764 224.018 19.82C224.018 15.9653 222.956 13.1727 220.832 11.442C218.787 9.63266 215.561 8.68866 211.156 8.61H186.73L182.482 42.476H206.908ZM291.545 -4.37C299.569 -4.29134 305.744 -2.40334 310.071 1.29399C314.397 4.91266 316.561 10.1833 316.561 17.106C316.561 17.9713 316.482 19.348 316.325 21.236L315.853 25.13C314.909 32.2887 312.391 37.9527 308.301 42.122C304.289 46.2913 298.861 48.9267 292.017 50.028L316.089 84.248H299.097L276.677 50.618H260.511L256.381 84.248H242.457L253.313 -4.37H291.545ZM286.707 37.874C291.191 37.7953 294.652 36.8513 297.091 35.042C299.608 33.2327 301.142 30.1253 301.693 25.72L302.401 20.646C302.479 20.0953 302.519 19.348 302.519 18.404C302.519 14.864 301.496 12.3467 299.451 10.852C297.405 9.27867 294.377 8.45266 290.365 8.37399H265.703L262.045 37.874H286.707ZM377.613 -4.842C387.997 -4.76334 395.628 -2.482 400.505 2.002C405.382 6.40733 407.821 13.3693 407.821 22.888C407.821 25.3267 407.624 28.316 407.231 31.856L405.461 48.022C403.73 60.8447 399.797 70.1667 393.661 75.988C387.525 81.7307 378.478 84.6413 366.521 84.72H357.789C347.405 84.6413 339.774 82.3993 334.897 77.994C330.02 73.5887 327.581 66.666 327.581 57.226C327.581 54.7873 327.778 51.7193 328.171 48.022L329.941 31.856C331.593 19.0333 335.487 9.75066 341.623 4.00799C347.838 -1.81334 356.924 -4.76334 368.881 -4.842H377.613ZM341.977 48.73C341.662 51.8767 341.505 54.0793 341.505 55.338C341.505 61.0807 342.842 65.25 345.517 67.846C348.27 70.3633 352.754 71.6613 358.969 71.74H368.409C375.568 71.6613 380.878 69.852 384.339 66.312C387.879 62.6933 390.2 56.8327 391.301 48.73L393.425 31.148C393.74 28.0013 393.897 25.7987 393.897 24.54C393.897 18.7973 392.52 14.6673 389.767 12.15C387.092 9.55399 382.648 8.21666 376.433 8.138H366.993C359.834 8.21666 354.485 10.0653 350.945 13.684C347.484 17.224 345.202 23.0453 344.101 31.148L341.977 48.73Z" fill="#FFEBB2"/>
</g>
</g>
<g id="&#229;&#141;&#135;&#231;&#186;&#167;Pro&#228;&#188;&#154;&#229;&#145;&#152; &#231;&#149;&#133;&#228;&#186;&#171;AI&#230;&#151;&#160;&#233;&#153;&#144;&#229;&#175;&#185;&#232;&#175;&#157;" filter="url(#filter1_d_1725_1582)">
<path d="M30.044 20.976C29.36 21.108 28.52 21.24 27.524 21.372L27.074 25.044H31.52L32.258 19.032H34.112L33.374 25.044H36.668L36.488 26.754H33.158L32.24 34.332H30.386L31.304 26.754H26.84C26.564 28.422 26.126 29.91 25.526 31.218C24.938 32.526 24.212 33.612 23.348 34.476L21.62 33.738C23.432 31.854 24.578 29.526 25.058 26.754H21.512L21.71 25.044H25.274L25.652 21.624C24.932 21.72 23.942 21.822 22.682 21.93L22.826 20.274C25.766 19.962 28.238 19.62 30.242 19.248L30.044 20.976ZM43.822 28.77C42.826 28.986 42.154 29.124 41.806 29.184C40.858 29.364 40.048 29.49 39.376 29.562C39.148 29.586 38.956 29.562 38.8 29.49C38.644 29.406 38.53 29.286 38.458 29.13C38.41 29.034 38.386 28.926 38.386 28.806C38.386 28.578 38.476 28.356 38.656 28.14C39.16 27.576 39.946 26.628 41.014 25.296C40.69 25.368 40.204 25.428 39.556 25.476L39.196 25.512C38.98 25.536 38.794 25.512 38.638 25.44C38.494 25.368 38.386 25.26 38.314 25.116C38.254 24.996 38.224 24.882 38.224 24.774C38.224 24.582 38.308 24.372 38.476 24.144C39.004 23.472 39.628 22.59 40.348 21.498C40.816 20.79 41.362 19.896 41.986 18.816H43.876C42.832 20.64 41.8 22.254 40.78 23.658C41.26 23.646 41.806 23.568 42.418 23.424C42.79 22.896 43.066 22.488 43.246 22.2H45.046C44.47 23.184 43.834 24.162 43.138 25.134C42.454 26.106 41.788 26.952 41.14 27.672C41.62 27.6 42.1 27.516 42.58 27.42L43.336 27.258L44.02 27.096L43.822 28.77ZM45.082 33.54C46.522 32.592 47.752 31.584 48.772 30.516C48.064 29.412 47.5 28.326 47.08 27.258C46.744 28.578 46.318 29.85 45.802 31.074C45.286 32.286 44.728 33.342 44.128 34.242L42.454 33.81C43.486 32.25 44.302 30.588 44.902 28.824C45.502 27.048 45.892 25.26 46.072 23.46L46.306 21.192H44.794L45.01 19.518H51.76C52.144 19.53 52.444 19.632 52.66 19.824C52.876 20.016 52.984 20.268 52.984 20.58C52.984 20.796 52.918 21.066 52.786 21.39L51.328 24.216H52.246C52.726 24.216 53.074 24.288 53.29 24.432C53.506 24.576 53.614 24.81 53.614 25.134C53.614 25.326 53.566 25.596 53.47 25.944C53.026 27.504 52.168 29.064 50.896 30.624C51.856 31.824 52.852 32.844 53.884 33.684L52.228 34.584C51.268 33.684 50.446 32.796 49.762 31.92C48.838 32.88 47.782 33.75 46.594 34.53L45.082 33.54ZM50.482 25.746C50.122 25.746 49.846 25.68 49.654 25.548C49.474 25.404 49.384 25.2 49.384 24.936C49.384 24.708 49.48 24.39 49.672 23.982L51.058 21.192H47.98L47.728 23.658C47.704 23.826 47.692 23.934 47.692 23.982C48.028 25.71 48.76 27.456 49.888 29.22C50.704 28.152 51.28 27.108 51.616 26.088C51.652 25.98 51.67 25.902 51.67 25.854C51.67 25.806 51.64 25.776 51.58 25.764C51.532 25.752 51.466 25.746 51.382 25.746H50.482ZM43.372 31.92C42.628 32.172 41.878 32.394 41.122 32.586C40.366 32.766 39.316 33.012 37.972 33.324L38.188 31.596C39.088 31.392 39.94 31.182 40.744 30.966C41.728 30.714 42.646 30.444 43.498 30.156L43.372 31.92ZM63.136 20.13C64.384 20.142 65.344 20.442 66.016 21.03C66.7 21.606 67.042 22.44 67.042 23.532C67.042 23.832 67.03 24.066 67.006 24.234L66.898 25.152C66.73 26.472 66.226 27.486 65.386 28.194C64.546 28.89 63.424 29.244 62.02 29.256H58.348L57.808 33.648H55.684L57.34 20.13H63.136ZM62.308 27.276C63.052 27.264 63.622 27.102 64.018 26.79C64.414 26.466 64.66 25.956 64.756 25.26L64.9 24.162C64.912 24.078 64.918 23.964 64.918 23.82C64.918 23.232 64.756 22.806 64.432 22.542C64.12 22.266 63.628 22.122 62.956 22.11H59.23L58.582 27.276H62.308ZM74.1292 25.584C73.3852 25.56 72.9052 25.548 72.6892 25.548C71.9212 25.548 71.3452 25.734 70.9612 26.106C70.5772 26.466 70.3372 27.066 70.2412 27.906L69.5212 33.648H67.4512L68.1532 27.96C68.3332 26.436 68.7892 25.332 69.5212 24.648C70.2652 23.964 71.3992 23.622 72.9232 23.622C73.5232 23.622 74.0332 23.64 74.4532 23.676L74.1292 25.584ZM74.8308 27.888C75.1788 24.996 76.7688 23.55 79.6008 23.55H80.4648C82.9488 23.55 84.1908 24.69 84.1908 26.97C84.1908 27.246 84.1728 27.546 84.1368 27.87L83.9568 29.382C83.6088 32.274 82.0188 33.72 79.1868 33.72H78.3228C75.8388 33.72 74.5968 32.58 74.5968 30.3C74.5968 30.024 74.6148 29.724 74.6508 29.4L74.8308 27.888ZM79.4208 31.794C80.8608 31.794 81.6768 31.008 81.8688 29.436L82.0668 27.816C82.0908 27.576 82.1028 27.408 82.1028 27.312C82.1028 26.088 81.4788 25.476 80.2308 25.476H79.3668C77.9268 25.476 77.1108 26.262 76.9188 27.834L76.7208 29.454C76.6968 29.694 76.6848 29.862 76.6848 29.958C76.6848 31.182 77.3088 31.794 78.5568 31.794H79.4208ZM96.6904 18.996C96.9424 18.996 97.1524 19.05 97.3204 19.158C97.5004 19.254 97.6744 19.428 97.8424 19.68L101.892 25.944L99.8224 26.196L96.4564 20.688H92.6584L88.1764 26.268L86.0164 25.998L91.1644 19.644C91.3324 19.404 91.5064 19.236 91.6864 19.14C91.8784 19.044 92.0884 18.996 92.3164 18.996H96.6904ZM90.8764 23.496H97.7704L97.5904 25.116H90.6964L90.8764 23.496ZM97.4464 33.288C94.0504 33.72 91.2244 33.972 88.9684 34.044C88.5724 34.056 88.2604 33.966 88.0324 33.774C87.8044 33.582 87.6904 33.33 87.6904 33.018C87.6904 32.694 87.8524 32.376 88.1764 32.064C89.2204 31.092 90.2164 29.946 91.1644 28.626H87.2944L87.4924 26.934H100.992L100.794 28.626H93.3784C92.8624 29.322 92.3404 29.982 91.8124 30.606C91.6804 30.774 91.2724 31.224 90.5884 31.956L90.3004 32.262C92.2684 32.166 94.3924 31.968 96.6724 31.668L95.6284 29.472H97.4824L99.8764 34.188H97.8784L97.4464 33.288ZM116.732 23.838H105.932L106.364 20.364C106.436 19.62 106.886 19.248 107.714 19.248H115.634C116.642 19.248 117.146 19.644 117.146 20.436C117.146 20.556 117.14 20.646 117.128 20.706L116.732 23.838ZM107.84 22.362H115.184L115.418 20.742H108.074L107.84 22.362ZM106.472 30.498H104.672L105.158 26.484C105.29 25.44 105.818 24.918 106.742 24.918H115.724C116.732 24.918 117.236 25.41 117.236 26.394C117.236 26.562 117.23 26.688 117.218 26.772L116.786 30.498H114.968L115.454 26.466H106.958L106.472 30.498ZM116.498 34.314C115.862 33.894 114.938 33.336 113.726 32.64C112.478 31.944 111.428 31.362 110.576 30.894C109.844 31.818 108.836 32.604 107.552 33.252C106.484 33.804 105.344 34.212 104.132 34.476L103.052 33.072C103.76 32.952 104.486 32.748 105.23 32.46C105.986 32.172 106.688 31.818 107.336 31.398C108.02 30.954 108.596 30.474 109.064 29.958C109.532 29.43 109.838 28.872 109.982 28.284L110.18 27.186H111.908L111.746 28.374C111.662 28.77 111.536 29.166 111.368 29.562C112.22 29.994 113.438 30.636 115.022 31.488C116.114 32.088 117.116 32.682 118.028 33.27L116.498 34.314ZM25.004 40.888H26.408L26.174 42.94H27.362C27.794 42.94 28.112 43.03 28.316 43.21C28.52 43.39 28.622 43.666 28.622 44.038C28.622 44.11 28.61 44.242 28.586 44.434L27.776 51.796H25.148L24.644 56.242H23.222L23.726 51.796H21.188L22.034 44.128C22.094 43.72 22.232 43.42 22.448 43.228C22.664 43.036 22.994 42.94 23.438 42.94H24.77L25.004 40.888ZM29.684 47.728C29.42 47.728 29.21 47.656 29.054 47.512C28.898 47.368 28.82 47.194 28.82 46.99C28.82 46.678 29 46.408 29.36 46.18C31.016 45.196 32.474 44.176 33.734 43.12H29.36L29.54 41.59H35.084C35.444 41.59 35.726 41.668 35.93 41.824C36.146 41.98 36.254 42.184 36.254 42.436C36.254 42.76 36.092 43.078 35.768 43.39C34.556 44.47 33.296 45.4 31.988 46.18H35.228C35.732 46.18 36.098 46.282 36.326 46.486C36.566 46.678 36.686 46.996 36.686 47.44C36.686 47.596 36.68 47.716 36.668 47.8C36.608 48.592 36.482 49.804 36.29 51.436C36.158 52.564 36.008 53.71 35.84 54.874C35.756 55.402 35.576 55.774 35.3 55.99C35.024 56.218 34.628 56.308 34.112 56.26C33.476 56.2 32.792 56.062 32.06 55.846L32.222 54.244C33.014 54.472 33.59 54.61 33.95 54.658H34.04C34.112 54.658 34.16 54.64 34.184 54.604C34.22 54.568 34.25 54.49 34.274 54.37C34.454 53.278 34.61 52.18 34.742 51.076C34.934 49.468 35.054 48.352 35.102 47.728H34.238C33.866 49.576 33.344 51.202 32.672 52.606C32 53.998 31.106 55.258 29.99 56.386L28.568 55.63C29.696 54.574 30.614 53.374 31.322 52.03C31.934 50.866 32.426 49.432 32.798 47.728H31.826C31.49 49.168 31.004 50.464 30.368 51.616C29.744 52.768 28.904 53.83 27.848 54.802L26.48 54.064C27.536 53.092 28.364 52.09 28.964 51.058C29.564 50.026 30.014 48.916 30.314 47.728H29.684ZM24.59 44.38H23.402L23.132 46.666H24.338L24.59 44.38ZM26.948 46.666L27.2 44.38H25.994L25.742 46.666H26.948ZM24.176 48.052H22.97L22.718 50.356H23.906L24.176 48.052ZM25.31 50.356H26.534L26.786 48.052H25.58L25.31 50.356ZM53.776 41.824L53.596 43.246H39.484L39.646 41.824H45.838L45.496 40.762H47.386L47.728 41.824H53.776ZM51.742 47.746H40.636L40.888 45.226C40.984 44.434 41.452 44.056 42.292 44.092H50.644C51.076 44.092 51.406 44.194 51.634 44.398C51.874 44.602 51.994 44.89 51.994 45.262C51.994 45.382 51.988 45.472 51.976 45.532L51.742 47.746ZM42.4 46.414H50.194L50.284 45.424H42.526L42.4 46.414ZM45.064 56.296C43.84 56.188 42.844 55.966 42.076 55.63L42.328 54.082C42.592 54.202 42.982 54.328 43.498 54.46L44.11 54.622C44.23 54.658 44.398 54.688 44.614 54.712C44.638 54.724 44.674 54.73 44.722 54.73C44.854 54.73 44.938 54.628 44.974 54.424L45.154 52.912H38.386L38.548 51.472H45.334L45.388 51.058L48.7 49.942H40.564L40.726 48.574H50.644C50.956 48.574 51.196 48.658 51.364 48.826C51.532 48.982 51.616 49.174 51.616 49.402C51.616 49.57 51.562 49.732 51.454 49.888C51.346 50.032 51.196 50.146 51.004 50.23L47.764 51.472H53.362L53.2 52.912H46.918L46.63 55.36C46.558 55.744 46.396 56.008 46.144 56.152C45.892 56.296 45.532 56.344 45.064 56.296ZM63.946 42.13C64.618 42.13 65.008 42.454 65.116 43.102L67.168 55.648H64.918L64.324 51.742H58.51L56.944 55.648H54.622L59.806 42.958C60.034 42.406 60.454 42.13 61.066 42.13H63.946ZM61.588 44.11L59.302 49.762H64.018L63.154 44.11H61.588ZM70.4181 42.13H72.5421L70.8861 55.648H68.7621L70.4181 42.13ZM88.5914 41.626L88.4114 43.264H83.1734L82.8494 46L82.7774 46.468H89.2574L89.0414 48.16H82.2914C81.7274 49.696 80.8214 51.244 79.5734 52.804C78.9734 53.536 78.3314 54.202 77.6474 54.802C76.9754 55.39 76.2974 55.858 75.6134 56.206L73.7954 55.36C75.1874 54.58 76.4954 53.524 77.7194 52.192C78.9194 50.884 79.8074 49.54 80.3834 48.16H74.8574L75.0554 46.468H80.9054L80.9594 46.144L81.3194 43.264H76.2614L76.4594 41.626H88.5914ZM82.3094 48.88H84.1274L83.5334 53.938C83.5214 53.986 83.5154 54.046 83.5154 54.118C83.5154 54.226 83.5454 54.304 83.6054 54.352C83.6654 54.4 83.7734 54.424 83.9294 54.424H85.5494C86.1614 54.424 86.7734 54.37 87.3854 54.262C87.9974 54.142 88.5554 53.98 89.0594 53.776L88.8254 55.63C87.7934 55.93 86.6294 56.08 85.3334 56.08H83.1734C82.6694 56.08 82.2854 55.966 82.0214 55.738C81.7694 55.522 81.6434 55.204 81.6434 54.784C81.6434 54.652 81.6494 54.55 81.6614 54.478L82.3094 48.88ZM96.1414 46.846C96.7174 48.082 97.0054 49.324 97.0054 50.572C97.0054 50.944 96.9754 51.388 96.9154 51.904C96.8314 52.48 96.6574 52.918 96.3934 53.218C96.1294 53.518 95.7754 53.668 95.3314 53.668C95.0554 53.668 94.7614 53.626 94.4494 53.542C94.1374 53.446 93.8554 53.332 93.6034 53.2L93.7474 51.58C94.1434 51.808 94.5214 51.946 94.8814 51.994C95.0614 52.018 95.1874 51.994 95.2594 51.922C95.3434 51.85 95.3974 51.694 95.4214 51.454C95.4694 51.118 95.4934 50.752 95.4934 50.356C95.4934 49.648 95.3554 48.916 95.0794 48.16C94.8274 47.584 94.6354 47.164 94.5034 46.9L95.9434 43.084H94.2874L92.6854 56.35H91.0294L92.6494 43.03C92.7214 42.418 92.8534 41.998 93.0454 41.77C93.2374 41.53 93.5614 41.404 94.0174 41.392H96.8074C97.1554 41.392 97.4194 41.476 97.5994 41.644C97.7794 41.8 97.8694 42.028 97.8694 42.328C97.8694 42.568 97.8034 42.85 97.6714 43.174L96.1414 46.846ZM101.955 49.276C102.135 49.84 102.393 50.476 102.729 51.184C103.893 50.752 104.943 50.308 105.879 49.852L105.699 51.562C104.811 51.946 104.079 52.24 103.503 52.444C104.283 53.512 105.315 54.478 106.599 55.342L104.997 56.296C103.869 55.408 102.927 54.4 102.171 53.272C101.427 52.144 100.803 50.812 100.299 49.276H99.5434L98.9494 54.064V54.154C98.9494 54.31 98.9914 54.388 99.0754 54.388C99.0874 54.388 99.1774 54.364 99.3454 54.316L100.533 53.902C100.953 53.746 101.295 53.608 101.559 53.488L101.505 55.27C100.821 55.606 99.9514 55.912 98.8954 56.188C98.6314 56.248 98.4274 56.278 98.2834 56.278C97.5874 56.278 97.2394 55.876 97.2394 55.072C97.2394 54.904 97.2454 54.772 97.2574 54.676L98.6614 42.94C98.7334 42.388 98.8954 41.998 99.1474 41.77C99.4114 41.542 99.8434 41.428 100.443 41.428H104.871C105.903 41.428 106.419 41.878 106.419 42.778C106.419 42.91 106.413 43.012 106.401 43.084L105.663 49.276H101.955ZM104.745 42.994H100.353L100.137 44.632H104.547L104.745 42.994ZM104.367 46.072H99.9574L99.7414 47.71H104.169L104.367 46.072ZM122.573 40.888L122.249 43.84H123.977L123.779 45.46H122.069L121.043 54.91C120.995 55.402 120.863 55.75 120.647 55.954C120.431 56.17 120.119 56.278 119.711 56.278C119.555 56.278 119.429 56.272 119.333 56.26C118.253 56.128 117.221 55.894 116.237 55.558L116.453 53.83C117.305 54.106 118.199 54.328 119.135 54.496C119.171 54.508 119.219 54.514 119.279 54.514C119.327 54.514 119.363 54.496 119.387 54.46C119.411 54.424 119.435 54.352 119.459 54.244L120.377 45.46H115.661L115.859 43.84H120.557L120.863 40.888H122.573ZM113.699 54.82L112.259 51.76C111.275 53.428 110.285 54.766 109.289 55.774L107.669 55.09C109.145 53.506 110.387 51.796 111.395 49.96C110.399 47.932 109.601 46.336 109.001 45.172L110.567 44.812L112.277 48.124C112.841 46.816 113.267 45.442 113.555 44.002C113.567 43.954 113.573 43.894 113.573 43.822C113.573 43.762 113.549 43.72 113.501 43.696C113.465 43.672 113.399 43.66 113.303 43.66H109.073L109.253 42.04H113.807C114.371 42.04 114.773 42.136 115.013 42.328C115.253 42.508 115.373 42.808 115.373 43.228C115.373 43.396 115.355 43.6 115.319 43.84C115.163 44.752 114.905 45.736 114.545 46.792C114.185 47.848 113.741 48.91 113.213 49.978L114.293 52.138C114.473 52.522 114.683 52.948 114.923 53.416L115.337 54.262L113.699 54.82ZM117.533 46.81L118.559 51.256H116.921L115.985 46.81H117.533ZM126.757 41.14L130.231 42.634L129.979 44.38L126.523 42.886L126.757 41.14ZM140.635 45.712L140.455 47.278H136.279L136.045 49.384H137.773C138.325 49.384 138.733 49.54 138.997 49.852C139.273 50.164 139.381 50.608 139.321 51.184L138.763 56.062H130.303L130.879 51.004C130.951 50.428 131.119 50.014 131.383 49.762C131.647 49.51 132.061 49.384 132.625 49.384H134.299L134.533 47.278H130.465L130.663 45.712H134.695L134.965 43.3C133.849 43.372 132.685 43.426 131.473 43.462L131.671 41.932C134.767 41.8 137.677 41.578 140.401 41.266L140.185 42.85C139.129 42.982 137.977 43.09 136.729 43.174L136.441 45.712H140.635ZM128.251 52.768C128.239 52.804 128.233 52.846 128.233 52.894C128.233 52.966 128.257 53.002 128.305 53.002C128.365 53.002 128.425 52.978 128.485 52.93C128.845 52.726 129.397 52.36 130.141 51.832L130.177 53.722C129.385 54.226 128.791 54.574 128.395 54.766C128.059 54.946 127.753 55.036 127.477 55.036C127.129 55.036 126.865 54.898 126.685 54.622C126.517 54.346 126.457 53.962 126.505 53.47L127.297 47.044H125.299L125.497 45.424H127.873C128.245 45.424 128.527 45.526 128.719 45.73C128.923 45.922 129.025 46.204 129.025 46.576C129.025 46.708 129.019 46.81 129.007 46.882L128.251 52.768ZM132.157 54.496H137.251L137.611 50.932H132.553L132.157 54.496Z" fill="url(#paint2_linear_1725_1582)"/>
</g>
<g id="Rectangle 55" filter="url(#filter2_d_1725_1582)">
<rect x="243" y="25" width="73" height="26" rx="13" fill="white"/>
</g>
<path id="&#231;&#171;&#139;&#229;&#141;&#179;&#229;&#141;&#135;&#231;&#186;&#167;" d="M256.96 34.996H261.412C261.232 34.42 261.04 33.892 260.836 33.4L262.156 33.184C262.324 33.712 262.504 34.324 262.672 34.996H267.076V36.1H256.96V34.996ZM256.552 42.496H262.444C263.14 40.936 263.764 38.98 264.292 36.652L265.504 36.964C265.024 39.04 264.448 40.888 263.764 42.496H267.484V43.6H256.552V42.496ZM259.744 36.652C260.272 38.188 260.728 39.964 261.136 41.968L259.912 42.28C259.552 40.468 259.096 38.728 258.544 37.048L259.744 36.652ZM270.172 36.928V38.32H272.692V36.928H270.172ZM272.692 35.908V34.588H270.172V35.908H272.692ZM268.96 43.9L268.564 42.808C268.888 42.688 269.056 42.496 269.056 42.22V33.568H273.748V39.376H270.172V42.436C271.084 42.172 271.9 41.896 272.62 41.608C272.416 41.272 272.212 40.948 272.008 40.612L272.872 40.06C273.616 41.2 274.18 42.196 274.576 43.036L273.688 43.66C273.52 43.3 273.34 42.94 273.148 42.556C271.924 43.072 270.52 43.516 268.96 43.9ZM277.84 42.592H276.88L276.58 41.488L277.468 41.524C277.804 41.524 277.972 41.356 277.972 41.044V34.648H276.136V44.2H274.996V33.58H279.112V41.296C279.112 42.16 278.68 42.592 277.84 42.592ZM286.144 33.184L286.696 34.108C286 34.42 285.304 34.672 284.596 34.864V37.624H287.548V33.28H288.688V37.624H291.364V38.728H288.688V44.224H287.548V38.728H284.572C284.404 41.224 283.42 43.06 281.608 44.26L280.744 43.504C282.376 42.484 283.276 40.888 283.42 38.728H280.624V37.624H283.444V35.152C282.724 35.296 281.98 35.392 281.236 35.452L280.876 34.42C283.048 34.204 284.8 33.784 286.144 33.184ZM296.176 41.536V42.616C295.12 43.036 293.932 43.372 292.588 43.624L292.444 42.52C293.86 42.28 295.108 41.944 296.176 41.536ZM294.568 33.124L295.66 33.556C295.06 34.948 294.46 36.088 293.836 36.964C294.304 36.916 294.772 36.868 295.228 36.796C295.456 36.412 295.696 35.992 295.936 35.548L296.932 35.92C295.888 37.72 295.012 39.04 294.316 39.868C295.072 39.724 295.84 39.52 296.632 39.28V40.312C295.336 40.696 294.1 40.96 292.924 41.104L292.624 40.072C292.828 40 292.996 39.892 293.14 39.748C293.524 39.376 294.016 38.74 294.604 37.828C294.004 37.912 293.392 37.996 292.768 38.068L292.48 37.024C292.66 36.952 292.816 36.82 292.96 36.616C293.572 35.56 294.112 34.396 294.568 33.124ZM297.856 34.636H296.764V33.568H302.188V34.276C301.996 35.284 301.816 36.148 301.636 36.88H303.124V37.516C302.86 39.148 302.332 40.528 301.54 41.632C302.14 42.244 302.836 42.796 303.628 43.276L302.896 44.236C302.104 43.708 301.42 43.12 300.844 42.472C300.136 43.204 299.284 43.804 298.3 44.26L297.664 43.216C298.624 42.76 299.428 42.196 300.076 41.524C299.488 40.684 299.02 39.76 298.684 38.752C298.3 41.08 297.544 42.904 296.416 44.2L295.564 43.456C297.064 41.728 297.832 38.968 297.856 35.152V34.636ZM300.748 40.732C301.348 39.892 301.756 38.944 301.984 37.876H300.328C300.532 37.132 300.76 36.052 301.024 34.636H298.96V35.152C298.96 35.656 298.936 36.136 298.912 36.592C299.224 38.164 299.836 39.544 300.748 40.732Z" fill="#FA931C"/>
</g>
<defs>
<filter id="filter0_i_1725_1582" x="0" y="0" width="335" height="79" filterUnits="userSpaceOnUse" color-interpolation-filters="sRGB">
<feFlood flood-opacity="0" result="BackgroundImageFix"/>
<feBlend mode="normal" in="SourceGraphic" in2="BackgroundImageFix" result="shape"/>
<feColorMatrix in="SourceAlpha" type="matrix" values="0 0 0 0 0 0 0 0 0 0 0 0 0 0 0 0 0 0 127 0" result="hardAlpha"/>
<feMorphology radius="5" operator="erode" in="SourceAlpha" result="effect1_innerShadow_1725_1582"/>
<feOffset dy="4"/>
<feGaussianBlur stdDeviation="4"/>
<feComposite in2="hardAlpha" operator="arithmetic" k2="-1" k3="1"/>
<feColorMatrix type="matrix" values="0 0 0 0 1 0 0 0 0 1 0 0 0 0 1 0 0 0 0.1 0"/>
<feBlend mode="normal" in2="shape" result="effect1_innerShadow_1725_1582"/>
</filter>
<filter id="filter1_d_1725_1582" x="21.188" y="18.816" width="119.447" height="38.5699" filterUnits="userSpaceOnUse" color-interpolation-filters="sRGB">
<feFlood flood-opacity="0" result="BackgroundImageFix"/>
<feColorMatrix in="SourceAlpha" type="matrix" values="0 0 0 0 0 0 0 0 0 0 0 0 0 0 0 0 0 0 127 0" result="hardAlpha"/>
<feOffset dy="1"/>
<feComposite in2="hardAlpha" operator="out"/>
<feColorMatrix type="matrix" values="0 0 0 0 1 0 0 0 0 1 0 0 0 0 1 0 0 0 1 0"/>
<feBlend mode="normal" in2="BackgroundImageFix" result="effect1_dropShadow_1725_1582"/>
<feBlend mode="normal" in="SourceGraphic" in2="effect1_dropShadow_1725_1582" result="shape"/>
</filter>
<filter id="filter2_d_1725_1582" x="239" y="25" width="81" height="34" filterUnits="userSpaceOnUse" color-interpolation-filters="sRGB">
<feFlood flood-opacity="0" result="BackgroundImageFix"/>
<feColorMatrix in="SourceAlpha" type="matrix" values="0 0 0 0 0 0 0 0 0 0 0 0 0 0 0 0 0 0 127 0" result="hardAlpha"/>
<feOffset dy="4"/>
<feGaussianBlur stdDeviation="2"/>
<feComposite in2="hardAlpha" operator="out"/>
<feColorMatrix type="matrix" values="0 0 0 0 1 0 0 0 0 0.776471 0 0 0 0 0.360784 0 0 0 0.2 0"/>
<feBlend mode="normal" in2="BackgroundImageFix" result="effect1_dropShadow_1725_1582"/>
<feBlend mode="normal" in="SourceGraphic" in2="effect1_dropShadow_1725_1582" result="shape"/>
</filter>
<linearGradient id="paint0_linear_1725_1582" x1="82" y1="24" x2="247.738" y2="68.9661" gradientUnits="userSpaceOnUse">
<stop stop-color="#FFEAB1"/>
<stop offset="1" stop-color="#FDCF50"/>
</linearGradient>
<linearGradient id="paint1_linear_1725_1582" x1="58.5" y1="4.64871e-05" x2="237.557" y2="76.0438" gradientUnits="userSpaceOnUse">
<stop stop-color="#FFEAB1"/>
<stop offset="1" stop-color="#FDCF50"/>
</linearGradient>
<linearGradient id="paint2_linear_1725_1582" x1="20" y1="26" x2="141.737" y2="52.2198" gradientUnits="userSpaceOnUse">
<stop stop-color="#F6923B"/>
<stop offset="1" stop-color="#FA931C"/>
</linearGradient>
</defs>
</svg>
