<svg width="16" height="16" viewBox="0 0 16 16" fill="none" xmlns="http://www.w3.org/2000/svg">
<g id="icon-voice-grey">
<path id="volume-high" d="M2.33331 4.66667H3.51131C3.82699 4.6667 4.13245 4.55473 4.37331 4.35067L6.83398 2.26667C6.99598 2.12953 7.1938 2.04156 7.40413 2.01312C7.61447 1.98468 7.82855 2.01696 8.02115 2.10615C8.21375 2.19534 8.37684 2.33772 8.4912 2.51652C8.60557 2.69532 8.66644 2.90309 8.66665 3.11534V12.8847C8.66655 13.097 8.60571 13.305 8.49131 13.4839C8.37692 13.6628 8.21373 13.8053 8.02101 13.8945C7.82828 13.9837 7.61407 14.0159 7.40362 13.9874C7.19318 13.9588 6.9953 13.8707 6.83331 13.7333L4.37331 11.6487C4.13235 11.4449 3.82691 11.3331 3.51131 11.3333H2.33331C2.0681 11.3333 1.81374 11.228 1.62621 11.0404C1.43867 10.8529 1.33331 10.5986 1.33331 10.3333V5.66667C1.33331 5.40145 1.43867 5.1471 1.62621 4.95956C1.81374 4.77203 2.0681 4.66667 2.33331 4.66667ZM11.178 11.18C11.597 10.763 11.9294 10.2674 12.1563 9.72156C12.3832 9.17572 12.5 8.59044 12.5 7.99934C12.5 7.40823 12.3832 6.82295 12.1563 6.27711C11.9294 5.73127 11.597 5.23564 11.178 4.81867C11.1318 4.77098 11.0766 4.73298 11.0155 4.70686C10.9545 4.68075 10.8889 4.66705 10.8225 4.66657C10.7561 4.66609 10.6903 4.67883 10.6289 4.70406C10.5674 4.72929 10.5117 4.76649 10.4648 4.8135C10.4179 4.86051 10.3809 4.91639 10.3558 4.97787C10.3308 5.03935 10.3182 5.10521 10.3189 5.17159C10.3195 5.23798 10.3334 5.30357 10.3597 5.36453C10.386 5.42549 10.4242 5.48061 10.472 5.52667C10.7978 5.85079 11.0563 6.23609 11.2327 6.66043C11.4091 7.08477 11.4999 7.53979 11.4999 7.99934C11.4999 8.45888 11.4091 8.9139 11.2327 9.33824C11.0563 9.76258 10.7978 10.1479 10.472 10.472C10.4242 10.5181 10.386 10.5732 10.3597 10.6341C10.3334 10.6951 10.3195 10.7607 10.3189 10.8271C10.3182 10.8935 10.3308 10.9593 10.3558 11.0208C10.3809 11.0823 10.4179 11.1382 10.4648 11.1852C10.5117 11.2322 10.5674 11.2694 10.6289 11.2946C10.6903 11.3198 10.7561 11.3326 10.8225 11.3321C10.8889 11.3316 10.9545 11.3179 11.0155 11.2918C11.0766 11.2657 11.1318 11.2277 11.178 11.18ZM12.7113 13.2127C12.6124 13.2126 12.5157 13.1832 12.4336 13.1281C12.3514 13.0731 12.2874 12.9949 12.2496 12.9035C12.2119 12.8121 12.2021 12.7115 12.2215 12.6146C12.2409 12.5176 12.2886 12.4285 12.3586 12.3587C12.9318 11.7866 13.3865 11.1071 13.6968 10.359C14.007 9.61102 14.1667 8.80915 14.1667 7.99934C14.1667 7.18952 14.007 6.38766 13.6968 5.63963C13.3865 4.8916 12.9318 4.2121 12.3586 3.64C12.3122 3.59351 12.2755 3.53834 12.2504 3.47764C12.2253 3.41693 12.2124 3.35188 12.2125 3.2862C12.2125 3.22052 12.2255 3.15549 12.2507 3.09483C12.2759 3.03417 12.3128 2.97907 12.3593 2.93267C12.4058 2.88627 12.461 2.84948 12.5217 2.8244C12.5824 2.79932 12.6474 2.78645 12.7131 2.78651C12.7788 2.78657 12.8438 2.79957 12.9045 2.82476C12.9651 2.84995 13.0202 2.88685 13.0666 2.93334C13.7328 3.59825 14.2613 4.38801 14.6219 5.25741C14.9825 6.12681 15.1681 7.05879 15.1681 8C15.1681 8.94122 14.9825 9.87319 14.6219 10.7426C14.2613 11.612 13.7328 12.4018 13.0666 13.0667C13.02 13.1134 12.9647 13.1504 12.9037 13.1756C12.8427 13.2007 12.7773 13.2129 12.7113 13.2127Z" fill="#D1D3DF"/>
</g>
</svg>
