<svg width="20" height="20" viewBox="0 0 20 20" fill="none" xmlns="http://www.w3.org/2000/svg">
<g id="icon-first-order-time">
<path id="time-forward" d="M13.3333 5.20833H14.8725C14.0802 4.40245 13.1009 3.80487 12.0219 3.46872C10.9429 3.13258 9.79755 3.06829 8.6877 3.28158C7.57785 3.49487 6.5379 3.97912 5.66035 4.69128C4.7828 5.40343 4.09484 6.32141 3.65765 7.36359C3.22046 8.40576 3.04758 9.53982 3.15441 10.6649C3.26123 11.79 3.64444 12.8713 4.26995 13.8126C4.89546 14.7538 5.74389 15.5259 6.73979 16.0602C7.73568 16.5945 8.84818 16.8744 9.97834 16.875C11.2554 16.8807 12.5081 16.5254 13.592 15.8501C14.676 15.1749 15.5471 14.2071 16.105 13.0583C16.1779 12.9094 16.3071 12.7955 16.464 12.7417C16.6209 12.688 16.7927 12.6987 16.9417 12.7717C17.0906 12.8446 17.2045 12.9737 17.2583 13.1306C17.312 13.2875 17.3013 13.4594 17.2283 13.6083C16.568 14.9677 15.5372 16.1128 14.2545 16.9119C12.9718 17.711 11.4895 18.1315 9.97834 18.125C8.6199 18.1292 7.28208 17.7928 6.08725 17.1464C4.89243 16.5001 3.87872 15.5645 3.13887 14.4252C2.39901 13.2859 1.95662 11.9793 1.85215 10.6249C1.74768 9.27045 1.98448 7.91145 2.54087 6.67218C3.09727 5.43291 3.9555 4.35292 5.03708 3.531C6.11866 2.70907 7.38906 2.17145 8.73208 1.96731C10.0751 1.76316 11.4479 1.89901 12.7248 2.36243C14.0018 2.82584 15.1422 3.60203 16.0417 4.62V2.5C16.0417 2.33424 16.1075 2.17527 16.2247 2.05806C16.3419 1.94085 16.5009 1.875 16.6667 1.875C16.8324 1.875 16.9914 1.94085 17.1086 2.05806C17.2258 2.17527 17.2917 2.33424 17.2917 2.5V5.83333C17.2917 5.99909 17.2258 6.15806 17.1086 6.27528C16.9914 6.39249 16.8324 6.45833 16.6667 6.45833H13.3333C13.1676 6.45833 13.0086 6.39249 12.8914 6.27528C12.7742 6.15806 12.7083 5.99909 12.7083 5.83333C12.7083 5.66757 12.7742 5.5086 12.8914 5.39139C13.0086 5.27418 13.1676 5.20833 13.3333 5.20833ZM10 6.04167C9.83424 6.04167 9.67527 6.10751 9.55806 6.22472C9.44085 6.34193 9.375 6.50091 9.375 6.66667V10C9.37494 10.0821 9.3911 10.1633 9.42257 10.2391C9.45403 10.3149 9.50017 10.3838 9.55834 10.4417L11.225 12.1083C11.3435 12.2187 11.5002 12.2788 11.6621 12.276C11.824 12.2731 11.9785 12.2075 12.093 12.093C12.2075 11.9785 12.2731 11.824 12.276 11.6621C12.2788 11.5002 12.2187 11.3435 12.1083 11.225L10.625 9.74083V6.66667C10.625 6.50091 10.5592 6.34193 10.4419 6.22472C10.3247 6.10751 10.1658 6.04167 10 6.04167Z" fill="#25314C" stroke="#25314C" stroke-width="0.7"/>
</g>
</svg>
