<svg width="20" height="20" viewBox="0 0 20 20" fill="none" xmlns="http://www.w3.org/2000/svg">
<g id="icon-inverse-order-time">
<path id="time-past" d="M10.625 6.66667V9.74083L12.1083 11.225C12.1697 11.2822 12.219 11.3512 12.2531 11.4279C12.2873 11.5046 12.3057 11.5873 12.3072 11.6712C12.3086 11.7552 12.2932 11.8385 12.2618 11.9163C12.2303 11.9942 12.1835 12.0648 12.1242 12.1242C12.0648 12.1835 11.9942 12.2303 11.9163 12.2618C11.8385 12.2932 11.7551 12.3086 11.6712 12.3072C11.5873 12.3057 11.5045 12.2873 11.4279 12.2532C11.3512 12.219 11.2822 12.1697 11.225 12.1083L9.55833 10.4417C9.50017 10.3838 9.45402 10.3149 9.42256 10.2391C9.3911 10.1633 9.37493 10.0821 9.375 10V6.66667C9.375 6.50091 9.44085 6.34194 9.55806 6.22472C9.67527 6.10751 9.83424 6.04167 10 6.04167C10.1658 6.04167 10.3247 6.10751 10.4419 6.22472C10.5591 6.34194 10.625 6.50091 10.625 6.66667ZM10.0217 1.875C8.87392 1.87501 7.73938 2.11987 6.69379 2.59322C5.64821 3.06658 4.71563 3.75755 3.95833 4.62V2.5C3.95833 2.33424 3.89248 2.17527 3.77527 2.05806C3.65806 1.94085 3.49909 1.875 3.33333 1.875C3.16757 1.875 3.0086 1.94085 2.89139 2.05806C2.77418 2.17527 2.70833 2.33424 2.70833 2.5V5.83333C2.70833 5.99909 2.77418 6.15806 2.89139 6.27528C3.0086 6.39249 3.16757 6.45833 3.33333 6.45833H6.66666C6.83242 6.45833 6.99139 6.39249 7.10861 6.27528C7.22582 6.15806 7.29166 5.99909 7.29166 5.83333C7.29166 5.66757 7.22582 5.5086 7.10861 5.39139C6.99139 5.27418 6.83242 5.20833 6.66666 5.20833H5.1275C5.91984 4.40245 6.89907 3.80487 7.97808 3.46872C9.05709 3.13258 10.2025 3.06829 11.3123 3.28158C12.4222 3.49487 13.4621 3.97912 14.3396 4.69128C15.2172 5.40343 15.9052 6.32141 16.3424 7.36359C16.7795 8.40576 16.9524 9.53982 16.8456 10.6649C16.7388 11.79 16.3556 12.8713 15.73 13.8126C15.1045 14.7538 14.2561 15.5259 13.2602 16.0602C12.2643 16.5945 11.1518 16.8744 10.0217 16.875C8.7446 16.8807 7.49191 16.5254 6.40796 15.8501C5.32401 15.1749 4.45289 14.2071 3.895 13.0583C3.82206 12.9094 3.69294 12.7955 3.53603 12.7417C3.37913 12.688 3.20729 12.6987 3.05833 12.7717C2.90937 12.8446 2.79548 12.9737 2.74172 13.1306C2.68796 13.2875 2.69873 13.4594 2.77166 13.6083C3.43196 14.9677 4.46282 16.1128 5.74549 16.9119C7.02815 17.711 8.51046 18.1315 10.0217 18.125C12.1765 18.125 14.2432 17.269 15.7669 15.7452C17.2906 14.2215 18.1467 12.1549 18.1467 10C18.1467 7.84512 17.2906 5.77849 15.7669 4.25476C14.2432 2.73102 12.1765 1.875 10.0217 1.875Z" fill="#25314C"/>
</g>
</svg>
