<svg width="24" height="24" viewBox="0 0 24 24" fill="none" xmlns="http://www.w3.org/2000/svg">
<g id="icon-pin">
<path id="thumbtack" d="M20.5252 10.2836L17.4343 12.2838C17.1439 12.4716 16.9053 12.7292 16.7401 13.0329C16.5749 13.3367 16.4884 13.6771 16.4886 14.0228C16.4886 14.8852 16.3188 15.7392 15.9886 16.5359C15.6585 17.3326 15.1746 18.0564 14.5646 18.666L5.58826 9.68973C6.81884 8.45922 8.48758 7.76753 10.2278 7.76663C10.5736 7.7668 10.9139 7.68033 11.2177 7.51514C11.5215 7.34995 11.7791 7.11128 11.9669 6.82094L13.9671 3.73001C14.0532 3.53325 14.1899 3.36278 14.3633 3.23591C14.5366 3.10905 14.7404 3.03029 14.9541 3.00764C15.1677 2.98499 15.3835 3.01925 15.5796 3.10695C15.7757 3.19464 15.9451 3.33265 16.0706 3.50696L20.7437 8.18008C20.9182 8.30526 21.0564 8.47435 21.1445 8.6702C21.2325 8.86605 21.2672 9.0817 21.245 9.29528C21.2228 9.50886 21.1446 9.71277 21.0182 9.88634C20.8917 10.0599 20.7217 10.197 20.5252 10.2836ZM4.44764 18.8401C4.32095 18.968 4.24988 19.1407 4.24988 19.3207C4.24988 19.5007 4.32095 19.6734 4.44764 19.8012C4.51065 19.8645 4.58554 19.9147 4.668 19.949C4.75047 19.9832 4.83889 20.0009 4.92819 20.0009C5.01748 20.0009 5.1059 19.9832 5.18837 19.949C5.27083 19.9147 5.34572 19.8645 5.40874 19.8012L10.5515 14.6603L9.58771 13.6992L4.44764 18.8401Z" fill="white"/>
</g>
</svg>
