<svg width="24" height="24" viewBox="0 0 24 24" fill="none" xmlns="http://www.w3.org/2000/svg">
<g id="icon-phone">
<path id="phone" d="M17.0011 13.9352L19.3511 15.3372C19.5877 15.4788 19.7745 15.6902 19.886 15.9424C19.9975 16.1946 20.0282 16.4751 19.9738 16.7454C19.8682 17.2862 19.6527 17.7996 19.3407 18.2538C19.0286 18.708 18.6267 19.0933 18.1598 19.3858C17.6928 19.6784 17.1708 19.8719 16.6261 19.9545C16.0813 20.0371 15.5254 20.007 14.9927 19.866C12.3962 19.1542 10.0297 17.7787 8.12579 15.8749C6.2219 13.9711 4.84622 11.6045 4.13402 9.00784C3.99305 8.47519 3.9629 7.91926 4.04543 7.37449C4.12796 6.82971 4.32143 6.30767 4.61384 5.84069C4.90625 5.3737 5.2914 4.97172 5.74542 4.65961C6.19945 4.34751 6.7127 4.13193 7.2534 4.02622H7.26763C7.53909 3.97159 7.82081 4.00279 8.07374 4.11548C8.32667 4.22818 8.53828 4.41678 8.67923 4.65515L10.0704 7.00363C10.3063 7.40566 10.3794 7.88278 10.2747 8.33704C10.17 8.7913 9.89544 9.18824 9.50733 9.4464L8.03347 10.4294C9.07674 12.9292 11.061 14.9185 13.558 15.9679L14.5498 14.4867C14.81 14.0983 15.2093 13.8246 15.6654 13.7219C16.1216 13.6193 16.5996 13.6957 17.0011 13.9352Z" fill="#1CD1AD"/>
</g>
</svg>
