<svg width="20" height="20" viewBox="0 0 20 20" fill="none" xmlns="http://www.w3.org/2000/svg">
<g id="icon-translate-selected">
<path id="Vector" d="M16.9415 17.0515C16.8685 17.0515 16.8037 17.0077 16.7767 16.9398L15.8412 14.6019H12.1896L11.2556 16.94C11.2286 17.0077 11.1637 17.0515 11.0908 17.0515H10.2115C10.1527 17.0515 10.0974 17.0223 10.0644 16.9733C10.0314 16.9245 10.0247 16.8625 10.0467 16.8078L13.3124 8.64312C13.3395 8.57543 13.4043 8.53166 13.4772 8.53166H14.5567C14.6258 8.53166 14.6866 8.56945 14.7167 8.63045L14.7215 8.64312L17.9872 16.8075C18.0092 16.8625 18.0025 16.9245 17.9693 16.9735C17.9363 17.0223 17.881 17.0515 17.8219 17.0515H16.9412H16.9415ZM12.6575 13.4303H15.3731L14.0164 10.0359L12.6575 13.4303ZM5.85173 17.0515C4.1781 17.0515 2.81637 15.6898 2.81637 14.0161V13.1998C2.81637 12.8769 3.07924 12.614 3.40239 12.614C3.72554 12.614 3.98818 12.8769 3.98818 13.1998V14.0161C3.98818 14.4878 4.1647 14.938 4.48522 15.2839C4.80598 15.6297 5.24155 15.8395 5.71181 15.8749H5.71611L5.84743 15.8794H7.48447C7.80738 15.8794 8.07026 16.1423 8.07026 16.4655C8.07026 16.7886 7.80738 17.0515 7.48447 17.0515H5.85173ZM5.44343 11.3364C5.39535 11.3364 5.35182 11.3185 5.31762 11.2843C5.28508 11.2518 5.26571 11.2049 5.26571 11.1587V8.8871H2.17772C2.12964 8.8871 2.08611 8.86916 2.05214 8.8352C2.01818 8.80123 2 8.7577 2 8.70938V3.81046C2 3.76429 2.01937 3.71741 2.05191 3.68488C2.08611 3.65068 2.1294 3.63274 2.17748 3.63274H5.26595V2.17772C5.26595 2.12964 5.28389 2.08611 5.31785 2.05214C5.35182 2.01818 5.39535 2 5.44367 2H6.26004C6.3062 2 6.35308 2.01937 6.38561 2.05191C6.41982 2.08611 6.43776 2.12964 6.43776 2.17772V3.63297H9.52575C9.62382 3.63297 9.70347 3.71263 9.70347 3.8107V8.70938C9.70347 8.80745 9.62382 8.8871 9.52575 8.8871H6.43776V11.1587C6.43776 11.2046 6.41838 11.2518 6.38561 11.2843C6.35308 11.3168 6.30596 11.3364 6.26004 11.3364H5.44367H5.44343ZM6.43752 7.71529H8.53142V4.80478H6.43752V7.71505V7.71529ZM3.17157 7.71529H5.26547V4.80478H3.17181V7.71505L3.17157 7.71529ZM16.4652 7.25413C16.1423 7.25413 15.8794 6.99125 15.8794 6.66834V5.85197C15.8794 5.35421 15.6857 4.88635 15.3336 4.53426C14.9815 4.18216 14.5137 3.98842 14.0159 3.98842H12.3829C12.06 3.98842 11.7971 3.72554 11.7971 3.40239C11.7971 3.07924 12.06 2.81661 12.3829 2.81637H14.0157C15.6893 2.81637 17.051 4.1781 17.051 5.85173V6.6681C17.051 6.99101 16.7881 7.25389 16.465 7.25389L16.4652 7.25413Z" fill="#1CD1AD"/>
</g>
</svg>
