<svg width="16" height="16" viewBox="0 0 16 16" fill="none" xmlns="http://www.w3.org/2000/svg">
<g id="icon-clean" clip-path="url(#clip0_1895_2676)">
<g id="Group">
<g id="Group_2">
<path id="Vector" d="M10.6667 7.33317H10V1.99984C10 1.2665 9.4 0.666504 8.66667 0.666504H7.33333C6.6 0.666504 6 1.2665 6 1.99984V7.33317H5.33333C3.49333 7.33317 2 8.8265 2 10.6665V15.3332H14V10.6665C14 8.8265 12.5067 7.33317 10.6667 7.33317ZM7.33333 1.99984H8.66667V7.33317H7.33333V1.99984ZM12.6667 13.9998H11.3333V11.9998C11.3333 11.6332 11.0333 11.3332 10.6667 11.3332C10.3 11.3332 10 11.6332 10 11.9998V13.9998H8.66667V11.9998C8.66667 11.6332 8.36667 11.3332 8 11.3332C7.63333 11.3332 7.33333 11.6332 7.33333 11.9998V13.9998H6V11.9998C6 11.6332 5.7 11.3332 5.33333 11.3332C4.96667 11.3332 4.66667 11.6332 4.66667 11.9998V13.9998H3.33333V10.6665C3.33333 9.5665 4.23333 8.6665 5.33333 8.6665H10.6667C11.7667 8.6665 12.6667 9.5665 12.6667 10.6665V13.9998Z" fill="black"/>
</g>
</g>
</g>
<defs>
<clipPath id="clip0_1895_2676">
<rect width="16" height="16" fill="white"/>
</clipPath>
</defs>
</svg>
