<svg width="28" height="28" viewBox="0 0 28 28" fill="none" xmlns="http://www.w3.org/2000/svg">
<g id="icon-voice">
<path id="Vector" d="M14.0489 25.6561C10.9436 25.6561 8.02714 24.4484 5.83362 22.2549C3.64009 20.0614 2.43237 17.1449 2.43237 14.0396C2.43237 10.9343 3.64009 8.01776 5.83362 5.82423C10.3602 1.29752 17.7377 1.29752 22.2643 5.82423C26.791 10.3509 26.791 17.7283 22.2643 22.2549C20.0707 24.4484 17.1543 25.6561 14.049 25.6561H14.0489ZM14.0489 4.16468C11.5185 4.16468 8.98832 5.1341 7.06585 7.05646C5.201 8.92142 4.17407 11.3943 4.17407 14.0396C4.17407 16.685 5.201 19.1577 7.06585 21.0226C8.93081 22.8875 11.4118 23.9226 14.0489 23.9144C16.6944 23.9144 19.1671 22.8875 21.0319 21.0226C24.885 17.1696 24.885 10.9095 21.0319 7.05658C19.1096 5.1341 16.5792 4.16479 14.0489 4.16479V4.16468Z" fill="#333333"/>
<g id="Group 34">
<path id="Vector_2" d="M14.7344 9C17.4101 11.7615 17.4101 16.2385 14.7344 19" stroke="#333333" stroke-width="1.8" stroke-miterlimit="10" stroke-linecap="round"/>
<path id="Vector_3" d="M11.5 11.1509C13.0249 12.7247 13.0249 15.276 11.5 16.8499" stroke="#333333" stroke-width="1.8" stroke-miterlimit="10" stroke-linecap="round"/>
</g>
</g>
</svg>
