<svg width="335" height="75" viewBox="0 0 335 75" fill="none" xmlns="http://www.w3.org/2000/svg">
<g id="pro&#228;&#188;&#154;&#229;&#145;&#152;banner">
<g id="Rectangle 39" filter="url(#filter0_i_1737_2991)">
<rect width="335" height="75" rx="8" fill="url(#paint0_linear_1737_2991)"/>
</g>
<g id="Mask group">
<mask id="mask0_1737_2991" style="mask-type:alpha" maskUnits="userSpaceOnUse" x="0" y="0" width="335" height="75">
<rect id="Rectangle 56" width="335" height="75" rx="8" fill="url(#paint1_linear_1737_2991)"/>
</mask>
<g mask="url(#mask0_1737_2991)">
<path id="PRO" opacity="0.3" d="M212.336 -4.37C220.517 -4.29134 226.811 -2.32467 231.216 1.53C235.7 5.306 237.942 10.7733 237.942 17.932C237.942 19.8987 237.863 21.4327 237.706 22.534L236.998 28.552C235.897 37.2053 232.593 43.8527 227.086 48.494C221.579 53.0567 214.224 55.3773 205.02 55.456H180.948L177.408 84.248H163.484L174.34 -4.37H212.336ZM206.908 42.476C211.785 42.3973 215.522 41.3353 218.118 39.29C220.714 37.166 222.327 33.8227 222.956 29.26L223.9 22.062C223.979 21.5113 224.018 20.764 224.018 19.82C224.018 15.9653 222.956 13.1727 220.832 11.442C218.787 9.63266 215.561 8.68866 211.156 8.61H186.73L182.482 42.476H206.908ZM291.545 -4.37C299.569 -4.29134 305.744 -2.40334 310.071 1.29399C314.397 4.91266 316.561 10.1833 316.561 17.106C316.561 17.9713 316.482 19.348 316.325 21.236L315.853 25.13C314.909 32.2887 312.391 37.9527 308.301 42.122C304.289 46.2913 298.861 48.9267 292.017 50.028L316.089 84.248H299.097L276.677 50.618H260.511L256.381 84.248H242.457L253.313 -4.37H291.545ZM286.707 37.874C291.191 37.7953 294.652 36.8513 297.091 35.042C299.608 33.2327 301.142 30.1253 301.693 25.72L302.401 20.646C302.479 20.0953 302.519 19.348 302.519 18.404C302.519 14.864 301.496 12.3467 299.451 10.852C297.405 9.27867 294.377 8.45266 290.365 8.37399H265.703L262.045 37.874H286.707ZM377.613 -4.842C387.997 -4.76334 395.628 -2.482 400.505 2.002C405.382 6.40733 407.821 13.3693 407.821 22.888C407.821 25.3267 407.624 28.316 407.231 31.856L405.461 48.022C403.73 60.8447 399.797 70.1667 393.661 75.988C387.525 81.7307 378.478 84.6413 366.521 84.72H357.789C347.405 84.6413 339.774 82.3993 334.897 77.994C330.02 73.5887 327.581 66.666 327.581 57.226C327.581 54.7873 327.778 51.7193 328.171 48.022L329.941 31.856C331.593 19.0333 335.487 9.75066 341.623 4.00799C347.838 -1.81334 356.924 -4.76334 368.881 -4.842H377.613ZM341.977 48.73C341.662 51.8767 341.505 54.0793 341.505 55.338C341.505 61.0807 342.842 65.25 345.517 67.846C348.27 70.3633 352.754 71.6613 358.969 71.74H368.409C375.568 71.6613 380.878 69.852 384.339 66.312C387.879 62.6933 390.2 56.8327 391.301 48.73L393.425 31.148C393.74 28.0013 393.897 25.7987 393.897 24.54C393.897 18.7973 392.52 14.6673 389.767 12.15C387.092 9.55399 382.648 8.21666 376.433 8.138H366.993C359.834 8.21666 354.485 10.0653 350.945 13.684C347.484 17.224 345.202 23.0453 344.101 31.148L341.977 48.73Z" fill="#FFEBB2"/>
</g>
</g>
<g id="Rectangle 55" filter="url(#filter1_d_1737_2991)">
<rect x="243" y="25" width="73" height="26" rx="13" fill="white"/>
</g>
<path id="&#231;&#171;&#139;&#229;&#141;&#179;&#231;&#187;&#173;&#232;&#180;&#185;" d="M256.96 34.996H261.412C261.232 34.42 261.04 33.892 260.836 33.4L262.156 33.184C262.324 33.712 262.504 34.324 262.672 34.996H267.076V36.1H256.96V34.996ZM256.552 42.496H262.444C263.14 40.936 263.764 38.98 264.292 36.652L265.504 36.964C265.024 39.04 264.448 40.888 263.764 42.496H267.484V43.6H256.552V42.496ZM259.744 36.652C260.272 38.188 260.728 39.964 261.136 41.968L259.912 42.28C259.552 40.468 259.096 38.728 258.544 37.048L259.744 36.652ZM270.172 36.928V38.32H272.692V36.928H270.172ZM272.692 35.908V34.588H270.172V35.908H272.692ZM268.96 43.9L268.564 42.808C268.888 42.688 269.056 42.496 269.056 42.22V33.568H273.748V39.376H270.172V42.436C271.084 42.172 271.9 41.896 272.62 41.608C272.416 41.272 272.212 40.948 272.008 40.612L272.872 40.06C273.616 41.2 274.18 42.196 274.576 43.036L273.688 43.66C273.52 43.3 273.34 42.94 273.148 42.556C271.924 43.072 270.52 43.516 268.96 43.9ZM277.84 42.592H276.88L276.58 41.488L277.468 41.524C277.804 41.524 277.972 41.356 277.972 41.044V34.648H276.136V44.2H274.996V33.58H279.112V41.296C279.112 42.16 278.68 42.592 277.84 42.592ZM284.308 41.536V42.616C283.276 43.036 282.1 43.372 280.792 43.636L280.66 42.52C282.052 42.28 283.264 41.944 284.308 41.536ZM282.316 33.136L283.396 33.556C282.88 34.948 282.352 36.088 281.824 36.964C282.208 36.916 282.592 36.856 282.988 36.784C283.18 36.4 283.396 35.992 283.612 35.572L284.656 35.968C283.696 37.732 282.892 39.028 282.244 39.844C282.868 39.7 283.504 39.508 284.152 39.28V40.312C283 40.696 281.908 40.96 280.876 41.104L280.564 40.072C280.768 40 280.936 39.892 281.08 39.748C281.44 39.376 281.884 38.728 282.412 37.816C281.884 37.9 281.332 37.984 280.78 38.068L280.504 37.036C280.672 36.964 280.828 36.832 280.972 36.616C281.476 35.572 281.932 34.408 282.316 33.136ZM285.136 33.844H287.452V33.136H288.556V33.844H291.04V34.876H288.556V35.704H291.244V36.412C291.076 37.18 290.848 37.936 290.572 38.68L289.48 38.368C289.72 37.9 289.912 37.36 290.08 36.76H284.764V35.704H287.452V34.876H285.136V33.844ZM284.5 40.024H286.216C285.664 39.556 285.112 39.184 284.548 38.896L285.076 38.116C285.712 38.428 286.3 38.8 286.828 39.256L286.324 40.024H287.74C287.764 39.808 287.788 39.58 287.8 39.352V37.084H288.904V39.352C288.892 39.592 288.88 39.808 288.856 40.024H291.544V41.08H288.652C288.604 41.224 288.568 41.356 288.52 41.476C289.648 42.004 290.692 42.616 291.64 43.312L291.004 44.296C290.044 43.48 289.084 42.832 288.1 42.328C288.052 42.412 287.992 42.496 287.944 42.568C287.368 43.312 286.42 43.888 285.124 44.296L284.488 43.3C285.748 42.916 286.6 42.424 287.056 41.824C287.212 41.596 287.344 41.344 287.464 41.08H284.5V40.024ZM286.012 36.904C286.6 37.18 287.14 37.528 287.644 37.948L287.116 38.752C286.588 38.272 286.048 37.912 285.508 37.648L286.012 36.904ZM294.724 36.052L294.556 36.64H295.984C296.032 36.448 296.068 36.256 296.092 36.052H294.724ZM297.196 36.052C297.184 36.256 297.16 36.448 297.124 36.64H298.756V36.052H297.196ZM299.86 36.052V36.64H303.028C303.028 37.576 302.932 38.164 302.74 38.416C302.548 38.68 302.104 38.812 301.408 38.824C301.216 38.824 301.024 38.812 300.844 38.8L300.64 38.02C300.856 38.044 301.072 38.056 301.276 38.056C301.588 38.056 301.78 38.008 301.852 37.924C301.912 37.828 301.948 37.696 301.948 37.504H299.86V38.752H298.756V37.504H296.824C296.668 37.792 296.488 38.056 296.272 38.272C295.996 38.536 295.636 38.764 295.192 38.98H302.044V42.316H300.916V39.988H295.396V42.316H294.28V39.316C294.04 39.388 293.788 39.46 293.524 39.52L292.948 38.632C294.16 38.368 294.976 38.032 295.408 37.624C295.456 37.576 295.492 37.528 295.516 37.504H293.332L293.8 35.176H296.104V34.588H293.44V33.664H296.104V33.136H297.208V33.664H298.756V33.136H299.86V33.664H302.404V36.052H299.86ZM297.208 34.588V35.176H298.756V34.588H297.208ZM299.86 34.588V35.176H301.348V34.588H299.86ZM298.888 42.076C300.436 42.436 301.852 42.868 303.124 43.384L302.5 44.332C301.144 43.732 299.752 43.276 298.312 42.94L298.888 42.076ZM297.556 40.288L298.684 40.396C298.528 41.776 298.168 42.688 297.604 43.144C297.004 43.72 295.588 44.104 293.356 44.272L292.9 43.252C294.784 43.168 296.032 42.916 296.632 42.484C297.16 42.052 297.46 41.32 297.556 40.288Z" fill="#FA931C"/>
</g>
<defs>
<filter id="filter0_i_1737_2991" x="0" y="0" width="335" height="79" filterUnits="userSpaceOnUse" color-interpolation-filters="sRGB">
<feFlood flood-opacity="0" result="BackgroundImageFix"/>
<feBlend mode="normal" in="SourceGraphic" in2="BackgroundImageFix" result="shape"/>
<feColorMatrix in="SourceAlpha" type="matrix" values="0 0 0 0 0 0 0 0 0 0 0 0 0 0 0 0 0 0 127 0" result="hardAlpha"/>
<feMorphology radius="5" operator="erode" in="SourceAlpha" result="effect1_innerShadow_1737_2991"/>
<feOffset dy="4"/>
<feGaussianBlur stdDeviation="4"/>
<feComposite in2="hardAlpha" operator="arithmetic" k2="-1" k3="1"/>
<feColorMatrix type="matrix" values="0 0 0 0 1 0 0 0 0 1 0 0 0 0 1 0 0 0 0.1 0"/>
<feBlend mode="normal" in2="shape" result="effect1_innerShadow_1737_2991"/>
</filter>
<filter id="filter1_d_1737_2991" x="239" y="25" width="81" height="34" filterUnits="userSpaceOnUse" color-interpolation-filters="sRGB">
<feFlood flood-opacity="0" result="BackgroundImageFix"/>
<feColorMatrix in="SourceAlpha" type="matrix" values="0 0 0 0 0 0 0 0 0 0 0 0 0 0 0 0 0 0 127 0" result="hardAlpha"/>
<feOffset dy="4"/>
<feGaussianBlur stdDeviation="2"/>
<feComposite in2="hardAlpha" operator="out"/>
<feColorMatrix type="matrix" values="0 0 0 0 1 0 0 0 0 0.776471 0 0 0 0 0.360784 0 0 0 0.2 0"/>
<feBlend mode="normal" in2="BackgroundImageFix" result="effect1_dropShadow_1737_2991"/>
<feBlend mode="normal" in="SourceGraphic" in2="effect1_dropShadow_1737_2991" result="shape"/>
</filter>
<linearGradient id="paint0_linear_1737_2991" x1="82" y1="24" x2="247.738" y2="68.9661" gradientUnits="userSpaceOnUse">
<stop stop-color="#FFEAB1"/>
<stop offset="1" stop-color="#FDCF50"/>
</linearGradient>
<linearGradient id="paint1_linear_1737_2991" x1="58.5" y1="4.64871e-05" x2="237.557" y2="76.0438" gradientUnits="userSpaceOnUse">
<stop stop-color="#FFEAB1"/>
<stop offset="1" stop-color="#FDCF50"/>
</linearGradient>
</defs>
</svg>
