<svg width="24" height="24" viewBox="0 0 24 24" fill="none" xmlns="http://www.w3.org/2000/svg">
<g id="icon-pin-cancel">
<path id="Subtract" fill-rule="evenodd" clip-rule="evenodd" d="M17.4343 12.2838L20.5252 10.2836C20.7217 10.1969 20.8917 10.0599 21.0182 9.88631C21.1446 9.71274 21.2228 9.50883 21.245 9.29525C21.2672 9.08167 21.2325 8.86602 21.1445 8.67017C21.0564 8.47432 20.9182 8.30523 20.7437 8.18005L16.0706 3.50693C15.9451 3.33262 15.7757 3.19461 15.5796 3.10692C15.3835 3.01922 15.1677 2.98496 14.9541 3.00761C14.7404 3.03026 14.5366 3.10902 14.3633 3.23588C14.1899 3.36275 14.0532 3.53322 13.9671 3.72998L11.9669 6.82091C11.7791 7.11125 11.5215 7.34992 11.2177 7.51511C10.9139 7.6803 10.5736 7.76677 10.2278 7.7666C9.73038 7.76685 9.23878 7.82356 8.76158 7.93315L16.3218 15.4934C16.4324 15.0122 16.4886 14.5189 16.4886 14.0228C16.4884 13.677 16.5749 13.3367 16.7401 13.0329C16.9053 12.7291 17.1439 12.4716 17.4343 12.2838ZM9.22923 14.0577L10.1916 15.02L5.40874 19.8012C5.34572 19.8645 5.27083 19.9147 5.18837 19.9489C5.1059 19.9832 5.01748 20.0008 4.92819 20.0008C4.83889 20.0008 4.75047 19.9832 4.668 19.9489C4.58554 19.9147 4.51065 19.8645 4.44764 19.8012C4.32095 19.6733 4.24988 19.5006 4.24988 19.3206C4.24988 19.1407 4.32095 18.968 4.44764 18.8401L9.22923 14.0577ZM15.9773 16.5631L7.69175 8.27754C7.06015 8.54241 6.46988 8.90611 5.94461 9.35882L14.8956 18.3098C15.345 17.7887 15.7103 17.1993 15.9773 16.5631Z" fill="white"/>
<path id="Vector 4 (Stroke)" fill-rule="evenodd" clip-rule="evenodd" d="M3.29289 5.29289C3.68342 4.90237 4.31658 4.90237 4.70711 5.29289L18.7071 19.2929C19.0976 19.6834 19.0976 20.3166 18.7071 20.7071C18.3166 21.0976 17.6834 21.0976 17.2929 20.7071L3.29289 6.70711C2.90237 6.31658 2.90237 5.68342 3.29289 5.29289Z" fill="white"/>
</g>
</svg>
