<svg width="20" height="20" viewBox="0 0 20 20" fill="none" xmlns="http://www.w3.org/2000/svg">
<g id="icon-aireply-normal">
<path id="lightbulb" d="M10.1767 2.00262C9.37419 1.97891 8.57508 2.11653 7.82672 2.4073C7.07836 2.69807 6.39597 3.13609 5.81998 3.69541C5.244 4.25472 4.78613 4.92395 4.47351 5.66345C4.16089 6.40295 3.99987 7.19768 4 8.00054C4.0736 9.63331 4.74217 11.1827 5.87958 12.3564C6.48417 12.901 6.84966 13.662 6.89675 14.4744V14.8286C6.87283 15.2424 6.93672 15.6567 7.08424 16.044C7.23175 16.4314 7.45954 16.7832 7.75266 17.0764C8.04577 17.3695 8.39758 17.5973 8.78497 17.7448C9.17236 17.8923 9.58658 17.9562 10.0004 17.9323C10.4143 17.9564 10.8287 17.8927 11.2163 17.7453C11.6038 17.5979 11.9558 17.3701 12.249 17.077C12.5423 16.7838 12.7701 16.4319 12.9176 16.0444C13.0651 15.6569 13.129 15.2425 13.1049 14.8286V14.4702C13.1235 14.0756 13.2197 13.6885 13.388 13.331C13.5563 12.9736 13.7933 12.6528 14.0857 12.3871C15.2684 11.2037 15.9534 9.61256 16 7.94013C15.9644 6.39612 15.3429 4.92345 14.2615 3.82083C13.18 2.7182 11.7197 2.06818 10.1767 2.00262ZM10.0004 16.6933C9.74981 16.7167 9.49713 16.6845 9.2604 16.599C9.02366 16.5136 8.8087 16.3769 8.63085 16.1988C8.45299 16.0207 8.31663 15.8056 8.23147 15.5687C8.14632 15.3319 8.11448 15.0792 8.13822 14.8286H11.8626C11.8858 15.0789 11.8536 15.3313 11.7682 15.5678C11.6828 15.8043 11.5464 16.019 11.3686 16.1968C11.1908 16.3746 10.9761 16.511 10.7396 16.5964C10.5031 16.6818 10.2508 16.714 10.0004 16.6908V16.6933ZM13.1455 11.5826C12.5957 12.1459 12.1918 12.8348 11.9685 13.5896C9.67181 13.5896 11.9553 13.5871 8.03145 13.5871C7.79698 12.8214 7.38298 12.1228 6.82392 11.5495C5.88395 10.5972 5.32164 9.33616 5.24146 8.00054C5.24146 6.73839 5.74285 5.52794 6.63533 4.63546C7.5278 3.74298 8.73826 3.2416 10.0004 3.2416H10.1419C11.3665 3.29527 12.5249 3.81252 13.3823 4.68851C14.2397 5.5645 14.732 6.73371 14.7594 7.95916C14.6965 9.32629 14.1201 10.6194 13.1455 11.5801V11.5826Z" fill="#151727"/>
<path id="Vector 11" d="M10 6L9 8.5H11L10 11" stroke="#151727" stroke-width="1.2" stroke-linecap="round" stroke-linejoin="round"/>
</g>
</svg>
