<svg width="24" height="24" viewBox="0 0 24 24" fill="none" xmlns="http://www.w3.org/2000/svg">
<g id="icon-collect-selected">
<path id="star" d="M12.962 4.60001L14.9 8.51301C14.9721 8.65847 15.0785 8.78419 15.21 8.87932C15.3416 8.97445 15.4943 9.03612 15.655 9.05901L20.137 9.70801C20.3216 9.73482 20.495 9.81271 20.6376 9.93289C20.7803 10.0531 20.8864 10.2107 20.9442 10.3881C21.0019 10.5655 21.0089 10.7554 20.9643 10.9365C20.9198 11.1176 20.8254 11.2827 20.692 11.413L17.451 14.558C17.3345 14.6711 17.2474 14.8109 17.197 14.9653C17.1466 15.1197 17.1346 15.284 17.162 15.444L17.903 19.744C17.9366 19.9408 17.9145 20.143 17.8392 20.3279C17.7638 20.5128 17.6383 20.6729 17.4767 20.7901C17.3152 20.9074 17.124 20.9771 16.9249 20.9914C16.7258 21.0057 16.5267 20.964 16.35 20.871L12.466 18.84C12.3221 18.7651 12.1623 18.726 12 18.726C11.8378 18.726 11.6779 18.7651 11.534 18.84L7.64902 20.874C7.47192 20.9668 7.27241 21.0083 7.07298 20.9938C6.87355 20.9793 6.68215 20.9094 6.52036 20.7919C6.35857 20.6744 6.23283 20.514 6.15732 20.3289C6.08181 20.1437 6.05954 19.9411 6.09302 19.744L6.83402 15.444C6.8614 15.284 6.84939 15.1197 6.79904 14.9653C6.74869 14.8109 6.6615 14.6711 6.54502 14.558L3.30002 11.413C3.16804 11.2825 3.075 11.1178 3.03129 10.9374C2.98759 10.7571 2.99495 10.5681 3.05255 10.3916C3.11015 10.2152 3.21573 10.0583 3.35745 9.9384C3.49918 9.81855 3.67146 9.74051 3.85502 9.71301L8.33702 9.06401C8.49965 9.04184 8.65433 8.97998 8.78739 8.88388C8.92046 8.78779 9.02783 8.66042 9.10002 8.51301L11.038 4.60001C11.1269 4.42089 11.2641 4.27014 11.4341 4.16476C11.604 4.05938 11.8 4.00354 12 4.00354C12.2 4.00354 12.396 4.05938 12.566 4.16476C12.7359 4.27014 12.8731 4.42089 12.962 4.60001Z" fill="#FFC217"/>
<path id="star_2" d="M16.8541 21.7499C16.5586 21.7495 16.2676 21.6775 16.0061 21.5399L12.1181 19.5049C12.0817 19.4858 12.0412 19.4757 12.0001 19.4757C11.959 19.4757 11.9185 19.4858 11.8821 19.5049L8.00009 21.5379C7.69913 21.6956 7.3601 21.766 7.02125 21.7412C6.6824 21.7164 6.35722 21.5975 6.0824 21.3977C5.80757 21.198 5.59403 20.9254 5.46587 20.6107C5.33771 20.2961 5.30004 19.9519 5.35709 19.6169L6.09809 15.3169C6.10463 15.2773 6.1015 15.2367 6.08896 15.1986C6.07642 15.1605 6.05485 15.1259 6.02609 15.0979L2.78209 11.9509C2.54787 11.7232 2.38213 11.4343 2.30365 11.1172C2.22517 10.8001 2.23709 10.4673 2.33806 10.1565C2.43903 9.84583 2.62501 9.56961 2.87493 9.35918C3.12485 9.14875 3.42871 9.01252 3.75209 8.96594L8.23409 8.31694C8.27424 8.31123 8.3124 8.29587 8.34531 8.27219C8.37823 8.2485 8.40492 8.21719 8.42309 8.18094L10.3661 4.26294C10.5171 3.95861 10.75 3.70249 11.0387 3.52344C11.3274 3.34438 11.6604 3.24951 12.0001 3.24951C12.3398 3.24951 12.6728 3.34438 12.9615 3.52344C13.2502 3.70249 13.4831 3.95861 13.6341 4.26294L15.5761 8.17994C15.5944 8.2164 15.6212 8.2479 15.6543 8.27176C15.6874 8.29561 15.7257 8.31111 15.7661 8.31694L20.2481 8.96594C20.5715 9.01252 20.8753 9.14875 21.1252 9.35918C21.3752 9.56961 21.5611 9.84583 21.6621 10.1565C21.7631 10.4673 21.775 10.8001 21.6965 11.1172C21.6181 11.4343 21.4523 11.7232 21.2181 11.9509L17.9781 15.0999C17.9489 15.1281 17.927 15.1629 17.9143 15.2014C17.9016 15.2399 17.8984 15.2809 17.9051 15.3209L18.6461 19.6209C18.6904 19.882 18.6773 20.1496 18.6077 20.4051C18.5381 20.6606 18.4138 20.8979 18.2432 21.1005C18.0727 21.3031 17.8601 21.4662 17.6202 21.5783C17.3803 21.6905 17.1189 21.749 16.8541 21.7499ZM12.0001 17.9759C12.2833 17.9755 12.5624 18.0442 12.8131 18.1759L16.7001 20.2109C16.7531 20.2407 16.8137 20.2542 16.8743 20.2497C16.935 20.2453 16.993 20.2231 17.0411 20.1859C17.0901 20.152 17.1281 20.1045 17.1505 20.0493C17.1729 19.994 17.1787 19.9334 17.1671 19.8749L16.4261 15.5749C16.3778 15.2945 16.3988 15.0066 16.4871 14.7361C16.5755 14.4656 16.7286 14.2208 16.9331 14.0229L20.1721 10.8789C20.2055 10.8464 20.2291 10.8051 20.2401 10.7598C20.2512 10.7145 20.2494 10.667 20.2348 10.6227C20.2202 10.5784 20.1935 10.5391 20.1576 10.5093C20.1218 10.4795 20.0783 10.4603 20.0321 10.4539L15.5511 9.79994C15.2699 9.75962 15.0027 9.65141 14.7728 9.48466C14.5428 9.31792 14.3569 9.09767 14.2311 8.84294L12.2901 4.92894C12.2632 4.87502 12.2218 4.82965 12.1706 4.79794C12.1194 4.76623 12.0603 4.74943 12.0001 4.74943C11.9398 4.74943 11.8808 4.76623 11.8296 4.79794C11.7783 4.82965 11.737 4.87502 11.7101 4.92894L9.76809 8.84594C9.64219 9.10008 9.4563 9.31975 9.22649 9.48596C8.99669 9.65217 8.72987 9.75994 8.44909 9.79994L3.96709 10.4479C3.92089 10.4543 3.87739 10.4735 3.84156 10.5033C3.80572 10.5331 3.77899 10.5724 3.76439 10.6167C3.7498 10.661 3.74795 10.7085 3.75903 10.7538C3.77011 10.7991 3.7937 10.8404 3.82709 10.8729L7.06709 14.0179C7.27127 14.2158 7.42408 14.4605 7.51226 14.7308C7.60044 15.001 7.62132 15.2888 7.57309 15.5689L6.83209 19.8689C6.82067 19.9277 6.8266 19.9884 6.84916 20.0438C6.87171 20.0993 6.90991 20.1469 6.95909 20.1809C7.00769 20.2179 7.06598 20.2399 7.12688 20.2444C7.18777 20.2488 7.24864 20.2355 7.30209 20.2059L11.1871 18.1729C11.4382 18.0427 11.7172 17.9751 12.0001 17.9759Z" fill="#FFC217"/>
</g>
</svg>
