<svg width="16" height="16" viewBox="0 0 16 16" fill="none" xmlns="http://www.w3.org/2000/svg">
<g id="icon-voice-green-m">
<path id="volume-high" d="M2 4.66359H3.178C3.49368 4.66362 3.79914 4.55164 4.04 4.34759L6.50067 2.26359C6.66266 2.12645 6.86049 2.03848 7.07082 2.01004C7.28115 1.9816 7.49523 2.01388 7.68783 2.10306C7.88043 2.19225 8.04353 2.33464 8.15789 2.51344C8.27226 2.69224 8.33313 2.90001 8.33333 3.11225V12.8816C8.33324 13.094 8.2724 13.3019 8.158 13.4808C8.0436 13.6597 7.88042 13.8022 7.68769 13.8914C7.49497 13.9806 7.28075 14.0128 7.07031 13.9843C6.85987 13.9557 6.66198 13.8676 6.5 13.7303L4.04 11.6456C3.79904 11.4418 3.4936 11.33 3.178 11.3303H2C1.73478 11.3303 1.48043 11.2249 1.29289 11.0374C1.10536 10.8498 1 10.5955 1 10.3303V5.66359C1 5.39837 1.10536 5.14402 1.29289 4.95648C1.48043 4.76894 1.73478 4.66359 2 4.66359ZM10.8447 11.1769C11.2636 10.76 11.5961 10.2643 11.823 9.71848C12.0499 9.17264 12.1666 8.58736 12.1666 7.99625C12.1666 7.40515 12.0499 6.81987 11.823 6.27403C11.5961 5.72819 11.2636 5.23255 10.8447 4.81559C10.7985 4.7679 10.7432 4.72989 10.6822 4.70378C10.6212 4.67766 10.5555 4.66397 10.4892 4.66349C10.4228 4.663 10.357 4.67575 10.2955 4.70098C10.2341 4.7262 10.1784 4.76341 10.1315 4.81042C10.0846 4.85743 10.0476 4.91331 10.0225 4.97479C9.99745 5.03627 9.98489 5.10212 9.98556 5.16851C9.98623 5.2349 10.0001 5.30048 10.0264 5.36145C10.0527 5.42241 10.0909 5.47753 10.1387 5.52359C10.4644 5.84771 10.723 6.23301 10.8994 6.65735C11.0758 7.08169 11.1666 7.53671 11.1666 7.99625C11.1666 8.4558 11.0758 8.91082 10.8994 9.33516C10.723 9.7595 10.4644 10.1448 10.1387 10.4689C10.0909 10.515 10.0527 10.5701 10.0264 10.6311C10.0001 10.692 9.98623 10.7576 9.98556 10.824C9.98489 10.8904 9.99745 10.9562 10.0225 11.0177C10.0476 11.0792 10.0846 11.1351 10.1315 11.1821C10.1784 11.2291 10.2341 11.2663 10.2955 11.2915C10.357 11.3168 10.4228 11.3295 10.4892 11.329C10.5555 11.3285 10.6212 11.3148 10.6822 11.2887C10.7432 11.2626 10.7985 11.2246 10.8447 11.1769ZM12.378 13.2096C12.2791 13.2095 12.1824 13.1801 12.1003 13.1251C12.0181 13.07 11.954 12.9919 11.9163 12.9004C11.8785 12.809 11.8688 12.7085 11.8882 12.6115C11.9076 12.5145 11.9553 12.4254 12.0253 12.3556C12.5985 11.7835 13.0532 11.104 13.3635 10.356C13.6737 9.60793 13.8334 8.80607 13.8334 7.99625C13.8334 7.18644 13.6737 6.38457 13.3635 5.63655C13.0532 4.88852 12.5985 4.20902 12.0253 3.63692C11.9789 3.59043 11.9421 3.53526 11.9171 3.47455C11.892 3.41385 11.8791 3.3488 11.8792 3.28312C11.8792 3.21743 11.8922 3.15241 11.9174 3.09175C11.9426 3.03109 11.9795 2.97599 12.026 2.92959C12.0725 2.88319 12.1277 2.8464 12.1884 2.82132C12.2491 2.79624 12.3141 2.78336 12.3798 2.78343C12.4455 2.78349 12.5105 2.79649 12.5712 2.82168C12.6318 2.84687 12.6869 2.88377 12.7333 2.93025C13.3995 3.59517 13.928 4.38493 14.2886 5.25433C14.6492 6.12373 14.8348 7.05571 14.8348 7.99692C14.8348 8.93813 14.6492 9.87011 14.2886 10.7395C13.928 11.6089 13.3995 12.3987 12.7333 13.0636C12.6867 13.1103 12.6313 13.1473 12.5703 13.1725C12.5094 13.1977 12.444 13.2098 12.378 13.2096Z" fill="#1CD1AD"/>
</g>
</svg>
