<svg width="24" height="24" viewBox="0 0 24 24" fill="none" xmlns="http://www.w3.org/2000/svg">
<g id="icon-collect-normal">
<path id="star" d="M16.8541 21.75C16.5586 21.7496 16.2676 21.6775 16.0061 21.54L12.1181 19.505C12.0817 19.4858 12.0412 19.4758 12.0001 19.4758C11.959 19.4758 11.9185 19.4858 11.8821 19.505L8.00009 21.538C7.69913 21.6957 7.3601 21.7661 7.02125 21.7413C6.6824 21.7165 6.35722 21.5975 6.0824 21.3978C5.80757 21.198 5.59403 20.9254 5.46587 20.6108C5.33771 20.2961 5.30004 19.9519 5.35709 19.617L6.09809 15.317C6.10463 15.2774 6.1015 15.2368 6.08896 15.1987C6.07642 15.1605 6.05485 15.126 6.02609 15.098L2.78209 11.951C2.54787 11.7232 2.38213 11.4344 2.30365 11.1173C2.22517 10.8001 2.23709 10.4673 2.33806 10.1566C2.43903 9.84589 2.62501 9.56967 2.87493 9.35924C3.12485 9.14881 3.42871 9.01258 3.75209 8.966L8.23409 8.31701C8.27424 8.31129 8.3124 8.29593 8.34531 8.27225C8.37823 8.24856 8.40492 8.21725 8.42309 8.181L10.3661 4.26301C10.5171 3.95868 10.75 3.70255 11.0387 3.5235C11.3274 3.34445 11.6604 3.24957 12.0001 3.24957C12.3398 3.24957 12.6728 3.34445 12.9615 3.5235C13.2502 3.70255 13.4831 3.95868 13.6341 4.26301L15.5761 8.18001C15.5944 8.21646 15.6212 8.24796 15.6543 8.27182C15.6874 8.29567 15.7257 8.31118 15.7661 8.31701L20.2481 8.966C20.5715 9.01258 20.8753 9.14881 21.1252 9.35924C21.3752 9.56967 21.5611 9.84589 21.6621 10.1566C21.7631 10.4673 21.775 10.8001 21.6965 11.1173C21.6181 11.4344 21.4523 11.7232 21.2181 11.951L17.9781 15.1C17.9489 15.1282 17.927 15.163 17.9143 15.2015C17.9016 15.24 17.8984 15.281 17.9051 15.321L18.6461 19.621C18.6904 19.8821 18.6773 20.1497 18.6077 20.4052C18.5381 20.6607 18.4138 20.898 18.2432 21.1006C18.0727 21.3032 17.8601 21.4662 17.6202 21.5784C17.3803 21.6905 17.1189 21.7491 16.8541 21.75ZM12.0001 17.976C12.2833 17.9756 12.5624 18.0442 12.8131 18.176L16.7001 20.211C16.7531 20.2407 16.8137 20.2542 16.8743 20.2498C16.935 20.2453 16.993 20.2232 17.0411 20.186C17.0901 20.1521 17.1281 20.1046 17.1505 20.0493C17.1729 19.9941 17.1787 19.9335 17.1671 19.875L16.4261 15.575C16.3778 15.2946 16.3988 15.0066 16.4871 14.7361C16.5755 14.4657 16.7286 14.2208 16.9331 14.023L20.1721 10.879C20.2055 10.8465 20.2291 10.8052 20.2401 10.7599C20.2512 10.7146 20.2494 10.6671 20.2348 10.6228C20.2202 10.5785 20.1935 10.5392 20.1576 10.5094C20.1218 10.4795 20.0783 10.4603 20.0321 10.454L15.5511 9.8C15.2699 9.75968 15.0027 9.65147 14.7728 9.48472C14.5428 9.31798 14.3569 9.09773 14.2311 8.84301L12.2901 4.929C12.2632 4.87508 12.2218 4.82971 12.1706 4.798C12.1194 4.76629 12.0603 4.74949 12.0001 4.74949C11.9398 4.74949 11.8808 4.76629 11.8296 4.798C11.7783 4.82971 11.737 4.87508 11.7101 4.929L9.76809 8.846C9.64219 9.10014 9.4563 9.31981 9.22649 9.48602C8.99669 9.65223 8.72987 9.76 8.44909 9.8L3.96709 10.448C3.92089 10.4543 3.87739 10.4735 3.84156 10.5034C3.80572 10.5332 3.77899 10.5725 3.76439 10.6168C3.7498 10.6611 3.74795 10.7086 3.75903 10.7539C3.77011 10.7992 3.7937 10.8405 3.82709 10.873L7.06709 14.018C7.27127 14.2158 7.42408 14.4605 7.51226 14.7308C7.60044 15.0011 7.62132 15.2888 7.57309 15.569L6.83209 19.869C6.82067 19.9277 6.8266 19.9885 6.84916 20.0439C6.87171 20.0993 6.90991 20.147 6.95909 20.181C7.00769 20.218 7.06598 20.24 7.12688 20.2444C7.18777 20.2489 7.24864 20.2355 7.30209 20.206L11.1871 18.173C11.4382 18.0427 11.7172 17.9751 12.0001 17.976Z" fill="#8C8E9D"/>
</g>
</svg>
