<svg width="95" height="95" viewBox="0 0 95 95" fill="none" xmlns="http://www.w3.org/2000/svg">
<g id="img-default-notloggedin">
<g id="Group">
<g id="Group_2">
<g id="Group_3">
<path id="Vector" d="M88.4002 47.7C88.4002 52.6 84.2002 56.6 79.7002 58.2C75.2002 59.8 70.2002 59.7 65.4002 60.2C60.6002 60.6 55.0002 65.1 51.6002 68.6C49.4002 70.9 48.3002 74 46.7002 76.8C45.1002 79.6 42.9002 82.3 39.8002 83C36.4002 83.7 32.9002 81.5 30.9002 78.7C28.9002 75.8 28.0002 72.3 27.0002 68.9C26.0002 65.5 25.5002 58.8 23.1002 56.2C21.0002 54 18.2002 52.6 15.5002 51.2C12.8002 49.8 10.0002 48.3 8.30017 45.8C6.50017 43.3 6.00017 39.7 7.90017 37.3C10.3002 34.3 14.7002 34.7 18.5002 34.4C25.6002 33.8 32.2002 29.5 35.8002 23.4C37.1002 21.1 38.0002 18.6 39.5002 16.3C41.0002 14.1 43.1002 12.1 45.8002 11.8C49.5002 11.4 52.6002 14.4 55.2002 17.1C60.1002 22.3 64.8002 28.9 71.2002 32.3C77.4002 35.7 88.4002 38.7 88.4002 47.7Z" fill="#EBEBEB"/>
</g>
<g id="Group_4">
<path id="Vector_2" d="M60.3001 79.2C60.4001 79.6 60.1001 80 59.7001 80L58.7001 80.2L58.9001 81.2C59.0001 81.6 58.7001 82 58.3001 82C57.9001 82.1 57.5001 81.8 57.5001 81.4L57.3001 80.4L56.3001 80.6C55.9001 80.7 55.5001 80.4 55.5001 80C55.4001 79.6 55.7001 79.2 56.1001 79.2L57.1001 79L56.9001 78C56.8001 77.6 57.1001 77.2 57.5001 77.2C57.9001 77.1 58.3001 77.4001 58.3001 77.8001L58.5001 78.8001L59.5001 78.6C59.9001 78.5 60.2001 78.8 60.3001 79.2Z" fill="#EBEBEB"/>
</g>
<g id="Group_5">
<path id="Vector_3" d="M16 20.0001C16.1 20.4001 15.8 20.8001 15.4 20.8001L14.4 21.0001L14.6 22.0001C14.7 22.4001 14.4 22.8001 14 22.8001C13.6 22.9001 13.2 22.6001 13.2 22.2001L13 21.2001L12 21.4001C11.6 21.5001 11.2 21.2001 11.2 20.8001C11.1 20.4001 11.4 20.0001 11.8 20.0001L12.8 19.8001L12.6 18.8001C12.5 18.4001 12.8 18.0001 13.2 18.0001C13.6 17.9001 14 18.2001 14 18.6001L14.2 19.6001L15.2 19.4001C15.6 19.3001 15.9 19.6001 16 20.0001Z" fill="#EBEBEB"/>
</g>
<g id="Group_6">
<path id="Vector_4" d="M60.5 20.5001V75.0001H19.5V20.5001C19.5 18.6001 21 17.1001 22.9 17.1001H57C58.9 17.1001 60.5 18.6001 60.5 20.5001Z" fill="white"/>
</g>
<g id="Group_7">
<path id="Vector_5" d="M57.0002 17.1001H56.7002V75.0001H60.4002V20.5001C60.4002 18.6001 58.9002 17.1001 57.0002 17.1001Z" fill="#EBEBEB"/>
</g>
<g id="Group_8">
<g id="Group_9">
<path id="Vector_6" d="M55.4001 31H24.4001C23.8001 31 23.4001 30.6 23.4001 30C23.4001 29.4 23.8001 29 24.4001 29H55.4001C56.0001 29 56.4001 29.4 56.4001 30C56.4001 30.6 56.0001 31 55.4001 31Z" fill="#EBEBEB"/>
</g>
</g>
<g id="Group_10">
<g id="Group_11">
<path id="Vector_7" d="M55.4 39H51C50.4 39 50 38.6 50 38C50 37.4 50.4 37 51 37H55.4C56 37 56.4 37.4 56.4 38C56.4 38.6 56 39 55.4 39Z" fill="#EBEBEB"/>
</g>
</g>
<g id="Group_12">
<g id="Group_13">
<path id="Vector_8" d="M46.2 39H24.5C23.9 39 23.5 38.6 23.5 38C23.5 37.4 23.9 37 24.5 37H46.2C46.8 37 47.2 37.4 47.2 38C47.2 38.6 46.7 39 46.2 39Z" fill="#EBEBEB"/>
</g>
</g>
<g id="Group_14">
<g id="Group_15">
<path id="Vector_9" d="M55.4002 47H33.2002C32.6002 47 32.2002 46.6 32.2002 46C32.2002 45.4 32.6002 45 33.2002 45H55.4002C56.0002 45 56.4002 45.4 56.4002 46C56.4002 46.6 56.0002 47 55.4002 47Z" fill="#EBEBEB"/>
</g>
</g>
<g id="Group_16">
<g id="Group_17">
<path id="Vector_10" d="M28.6 47H24.5C23.9 47 23.5 46.6 23.5 46C23.5 45.4 23.9 45 24.5 45H28.6C29.2 45 29.6 45.4 29.6 46C29.6 46.6 29.1 47 28.6 47Z" fill="#EBEBEB"/>
</g>
</g>
<g id="Group_18">
<g id="Group_19">
<path id="Vector_11" d="M55.4001 55H51.6001C51.0001 55 50.6001 54.6 50.6001 54C50.6001 53.4 51.0001 53 51.6001 53H55.4001C56.0001 53 56.4001 53.4 56.4001 54C56.4001 54.6 56.0001 55 55.4001 55Z" fill="#EBEBEB"/>
</g>
</g>
<g id="Group_20">
<g id="Group_21">
<path id="Vector_12" d="M47.2 55H24.5C23.9 55 23.5 54.6 23.5 54C23.5 53.4 23.9 53 24.5 53H47.2C47.8 53 48.2 53.4 48.2 54C48.2 54.6 47.7 55 47.2 55Z" fill="#EBEBEB"/>
</g>
</g>
<g id="Group_22">
<g id="Group_23">
<path id="Vector_13" d="M55.4001 63H24.4001C23.8001 63 23.4001 62.6 23.4001 62C23.4001 61.4 23.8001 61 24.4001 61H55.4001C56.0001 61 56.4001 61.4 56.4001 62C56.4001 62.6 56.0001 63 55.4001 63Z" fill="#EBEBEB"/>
</g>
</g>
<g id="Group_24">
<g id="Group_25">
<g id="Group_26">
<path id="Vector_14" d="M78 59.4001C78 68.0001 71.1001 75 62.4001 75C53.8001 75 46.8 68.0001 46.8 59.4001C46.8 50.8001 53.8001 43.8 62.4001 43.8C71.1001 43.8 78 50.8001 78 59.4001Z" fill="white"/>
</g>
</g>
<g id="Group_27">
<path id="Vector_15" d="M73 70.6999C70.3 73.3999 66.6 75.0999 62.5 75.0999C58.4 75.0999 54.7 73.3999 52 70.6999C53.1 67.7999 55.3 65.6 58.1 64.4C55.9 63 54.5 60.5 54.5 57.7C54.5 53.3 58.1 49.7 62.5 49.7C66.9 49.7 70.5 53.3 70.5 57.7C70.5 60.5 69.1 62.9 66.9 64.3C69.7 65.5 71.9 67.7999 73 70.6999Z" fill="white"/>
</g>
<g id="Group_28">
<path id="Vector_16" d="M78 59.4001C78 68.0001 71.1001 75 62.4001 75C61.2001 75 60 74.9 58.8 74.6C66.8 73.8 73 67.2 73 59.1C73 51.7 67.9 45.6001 61 43.9001C61.5 43.9001 62 43.8 62.5 43.8C71.1 43.8 78 50.8001 78 59.4001Z" fill="#EBEBEB"/>
</g>
</g>
<g id="Group_29">
<g id="Group_30">
<path id="Vector_17" d="M84.1001 18.8H85.2001V19.9C85.2001 20.3 85.5001 20.6 85.9001 20.7C86.3001 20.7 86.6001 20.4 86.7001 20V18.9H87.8001C88.2001 18.9 88.5001 18.6 88.6001 18.2C88.6001 17.8 88.3001 17.5 87.9001 17.4H86.8001V16.3C86.8001 15.9 86.5001 15.6 86.1001 15.5C85.7001 15.5 85.4001 15.8 85.3001 16.2V17.3H84.2001C83.8001 17.3 83.5001 17.6 83.4001 18C83.3001 18.5 83.7001 18.8 84.1001 18.8Z" fill="#979797"/>
<path id="Vector_18" d="M11.7 41.3H12.8V42.4C12.8 42.8 13.1 43.1 13.5 43.2C13.9 43.2 14.2 42.9 14.3 42.5V41.4H15.4C15.8 41.4 16.1 41.1 16.2 40.7C16.2 40.3 15.9 40 15.5 39.9H14.4V38.8C14.4 38.4 14.1 38.1 13.7 38C13.3 38 13 38.3 12.9 38.7V39.8H11.8C11.4 39.8 11.1 40.1 11 40.5C11 41 11.3 41.3 11.7 41.3Z" fill="#979797"/>
<path id="Vector_19" d="M5.6001 73.8999H2.6001C2.0001 73.8999 1.6001 74.2999 1.6001 74.8999C1.6001 75.4999 2.0001 75.8999 2.6001 75.8999H5.6001C6.2001 75.8999 6.6001 75.4999 6.6001 74.8999C6.6001 74.3999 6.1001 73.8999 5.6001 73.8999Z" fill="#979797"/>
<path id="Vector_20" d="M92.5 74H82.8C82.2 74 81.8 74.4 81.8 75C81.8 75.6 82.2 76 82.8 76H92.5C93.1 76 93.5 75.6 93.5 75C93.5 74.5 93.1 74 92.5 74Z" fill="#979797"/>
<path id="Vector_21" d="M39.9002 69.7C39.0002 69.7 38.2002 70.4 38.2002 71.4C38.2002 72.3 38.9002 73.1 39.9002 73.1C40.8002 73.1 41.6002 72.4 41.6002 71.4C41.6002 70.5 40.9002 69.7 39.9002 69.7Z" fill="#979797"/>
<path id="Vector_22" d="M39.5 21.7H45.6C46.1 21.7 46.6 21.2 46.6 20.7C46.6 20.2 46.2 19.7 45.6 19.7H39.5C38.9 19.7 38.5 20.2 38.5 20.7C38.5 21.2 38.9 21.7 39.5 21.7Z" fill="#979797"/>
<path id="Vector_23" d="M34.4001 21.7H35.6001C36.1001 21.7 36.6001 21.2 36.6001 20.7C36.6001 20.2 36.2001 19.7 35.6001 19.7H34.4001C33.9001 19.7 33.4001 20.2 33.4001 20.7C33.4001 21.2 33.8001 21.7 34.4001 21.7Z" fill="#979797"/>
<path id="Vector_24" d="M79.0002 59.4001C79.0002 49.9001 71.0002 42.3001 61.4002 42.8001C61.4002 34.5001 61.4002 28.6001 61.4002 20.5001C61.4002 18.1001 59.4002 16.1001 57.0002 16.1001H22.9002C20.5002 16.1001 18.5002 18.1001 18.5002 20.5001C18.5002 38.1001 18.5002 58.5001 18.5002 74.0001H11.7002C11.2002 74.0001 10.7002 74.5001 10.7002 75.0001C10.7002 75.5001 11.2002 76.0001 11.7002 76.0001C68.5002 76.0001 73.7002 76.0001 73.8002 76.0001C74.4002 76.0001 74.8002 75.5001 74.8002 75.0001C74.8002 74.5001 74.4002 74.0001 73.8002 74.0001H70.4002C75.5002 71.2001 79.0002 65.7001 79.0002 59.4001ZM47.6002 66.8001H20.5002V25.3001H59.5002V43.1001C51.8002 44.5001 45.9002 51.3001 45.9002 59.4001C45.8002 62.1001 46.5002 64.6001 47.6002 66.8001ZM22.9002 18.1001H57.0002C58.3002 18.1001 59.4002 19.2001 59.4002 20.5001V23.3001H20.4002V20.5001C20.5002 19.2001 21.5002 18.1001 22.9002 18.1001ZM20.5002 68.8001H48.8002C50.3002 70.9001 52.2002 72.7001 54.5002 74.0001H20.5002V68.8001ZM63.2002 74.0001C53.4002 74.0001 47.9002 66.7001 47.9002 59.4001C47.9002 51.4001 54.4002 44.8001 62.5002 44.8001C70.6002 44.8001 77.1002 51.3001 77.1002 59.4001C77.0002 67.2001 70.9002 73.6001 63.2002 74.0001Z" fill="#979797"/>
</g>
<g id="Group_31">
<g id="Group_32">
<path id="Vector_25" d="M62.4 76.0001C58.2 76.0001 54.2 74.3001 51.2 71.4001C50.9 71.1001 50.8 70.7001 51 70.3001C52 67.7001 53.8 65.5001 56.2 64.1001C54.5 62.4001 53.5 60.1001 53.5 57.6001C53.5 52.6001 57.5 48.6001 62.5 48.6001C67.5 48.6001 71.5 52.6001 71.5 57.6001C71.5 60.1001 70.5001 62.4001 68.8001 64.1001C71.2001 65.5001 73 67.7001 74 70.3001C74.1 70.7001 74.1001 71.1001 73.8001 71.4001C70.7001 74.4001 66.7 76.0001 62.4 76.0001ZM53.1 70.4001C55.7 72.7001 59 74.0001 62.4 74.0001C65.9 74.0001 69.2 72.7001 71.7 70.4001C70.6 68.1001 68.7 66.2001 66.4 65.2001C66.1 65.1001 65.8001 64.7001 65.8001 64.4001C65.8001 64.0001 65.9 63.7001 66.2 63.5001C68.1 62.2001 69.3001 60.0001 69.3001 57.7001C69.3001 53.8001 66.2 50.7001 62.3 50.7001C58.4 50.7001 55.3 53.8001 55.3 57.7001C55.3 60.0001 56.5 62.2001 58.4 63.5001C58.7 63.7001 58.9 64.1001 58.8 64.4001C58.8 64.8001 58.5 65.1001 58.2 65.2001C56.1 66.2001 54.2 68.1001 53.1 70.4001Z" fill="#979797"/>
</g>
</g>
</g>
<g id="Group_33" opacity="0.3">
<g id="Group_34">
<g id="Group_35">
<path id="Vector_26" d="M45.8 59.4001C45.8 51.3001 51.7001 44.5001 59.4001 43.1001V41.1001C50.6001 42.5001 43.8 50.2001 43.8 59.4001C43.8 65.2001 46.5001 70.5001 50.9001 74.0001H54.5C49.3 71.2001 45.8 65.7001 45.8 59.4001Z" fill="#EBEBEB"/>
</g>
</g>
</g>
</g>
</g>
</g>
</svg>
