<svg width="41" height="17" viewBox="0 0 41 17" fill="none" xmlns="http://www.w3.org/2000/svg">
<g id="label-pro">
<rect id="Rectangle 54" width="41" height="17" rx="8.5" fill="url(#paint0_linear_1737_3084)"/>
<path id="Pro" d="M22.52 4.85C23.2133 4.85667 23.7467 5.02333 24.12 5.35C24.5 5.67 24.69 6.13333 24.69 6.74C24.69 6.90667 24.6833 7.03667 24.67 7.13L24.61 7.64C24.5167 8.37333 24.2367 8.93667 23.77 9.33C23.3033 9.71667 22.68 9.91333 21.9 9.92H19.86L19.56 12.36H18.38L19.3 4.85H22.52ZM22.06 8.82C22.4733 8.81333 22.79 8.72333 23.01 8.55C23.23 8.37 23.3667 8.08667 23.42 7.7L23.5 7.09C23.5067 7.04333 23.51 6.98 23.51 6.9C23.51 6.57333 23.42 6.33667 23.24 6.19C23.0667 6.03667 22.7933 5.95667 22.42 5.95H20.35L19.99 8.82H22.06ZM28.6273 7.88C28.214 7.86667 27.9473 7.86 27.8273 7.86C27.4007 7.86 27.0807 7.96333 26.8673 8.17C26.654 8.37 26.5207 8.70333 26.4673 9.17L26.0673 12.36H24.9173L25.3073 9.2C25.4073 8.35333 25.6607 7.74 26.0673 7.36C26.4807 6.98 27.1107 6.79 27.9573 6.79C28.2907 6.79 28.574 6.8 28.8073 6.82L28.6273 7.88ZM29.0171 9.16C29.2104 7.55333 30.0938 6.75 31.6671 6.75H32.1471C33.5271 6.75 34.2171 7.38333 34.2171 8.65C34.2171 8.80333 34.2071 8.97 34.1871 9.15L34.0871 9.99C33.8938 11.5967 33.0104 12.4 31.4371 12.4H30.9571C29.5771 12.4 28.8871 11.7667 28.8871 10.5C28.8871 10.3467 28.8971 10.18 28.9171 10L29.0171 9.16ZM31.5671 11.33C32.3671 11.33 32.8204 10.8933 32.9271 10.02L33.0371 9.12C33.0504 8.98667 33.0571 8.89333 33.0571 8.84C33.0571 8.16 32.7104 7.82 32.0171 7.82H31.5371C30.7371 7.82 30.2838 8.25667 30.1771 9.13L30.0671 10.03C30.0538 10.1633 30.0471 10.2567 30.0471 10.31C30.0471 10.99 30.3938 11.33 31.0871 11.33H31.5671Z" fill="white"/>
<g id="diamond-filled 1" clip-path="url(#clip0_1737_3084)">
<path id="Vector" d="M14.25 4.83337C14.319 4.83338 14.3871 4.84896 14.4492 4.87895C14.5114 4.90895 14.5659 4.95259 14.6089 5.00662L14.6428 5.05612L16.0178 7.34779C16.0628 7.42294 16.0854 7.50941 16.0828 7.59698C16.0802 7.68454 16.0525 7.76953 16.0031 7.84187L15.9664 7.88908L12.0569 12.2584C11.9843 12.3324 11.8976 12.3913 11.802 12.4314C11.7064 12.4715 11.6037 12.4922 11.5 12.4921C11.3166 12.4921 11.1402 12.428 10.9912 12.301L10.9294 12.2432L7.03352 7.88908C6.97491 7.82369 6.93632 7.74283 6.92235 7.65613C6.90837 7.56943 6.9196 7.48054 6.95469 7.40004L6.98219 7.34733L8.36315 5.04558L8.39248 5.00433C8.41346 4.97824 8.43729 4.95456 8.46352 4.93375L8.50431 4.90442L8.54465 4.8815L8.56756 4.87096L8.59506 4.8595L8.64502 4.84483L8.69635 4.83567L8.74998 4.83337H14.25ZM10.1772 6.64058C10.073 6.57819 9.94833 6.55969 9.83051 6.58917C9.71269 6.61865 9.61139 6.69368 9.54885 6.79779L9.27385 7.25612L9.24635 7.30929C9.21127 7.39018 9.20027 7.47947 9.21466 7.56645C9.22905 7.65344 9.26822 7.73443 9.32748 7.79971L10.2441 8.80804L10.2854 8.84837C10.3702 8.92097 10.4787 8.9601 10.5903 8.95842C10.702 8.95673 10.8092 8.91434 10.8918 8.83921L10.9316 8.79796C11.0042 8.71312 11.0434 8.60469 11.0417 8.49304C11.04 8.38139 10.9976 8.27419 10.9225 8.19158L10.2345 7.43533L10.3344 7.26896L10.3596 7.22175C10.4057 7.11935 10.4126 7.00361 10.3789 6.89648C10.3453 6.78935 10.2735 6.69829 10.1772 6.64058Z" fill="white"/>
</g>
</g>
<defs>
<linearGradient id="paint0_linear_1737_3084" x1="39.1778" y1="17" x2="2.106" y2="1.60817" gradientUnits="userSpaceOnUse">
<stop stop-color="#FFA450"/>
<stop offset="0.221688" stop-color="#FFAC1B"/>
<stop offset="0.821636" stop-color="#FFB800"/>
<stop offset="1" stop-color="#FFC700"/>
</linearGradient>
<clipPath id="clip0_1737_3084">
<rect width="11" height="11" fill="white" transform="translate(6 3)"/>
</clipPath>
</defs>
</svg>
