<svg width="64" height="64" viewBox="0 0 64 64" fill="none" xmlns="http://www.w3.org/2000/svg">
<g id="&#233;&#159;&#179;&#230;&#149;&#136;&#229;&#138;&#168;&#230;&#149;&#136;">
<path id="Vector" d="M33.0688 11.3313C31.5938 11.3313 30.4 12.525 30.4 14V50C30.4 51.475 31.5938 52.6688 33.0688 52.6688C34.5438 52.6688 35.7375 51.475 35.7375 50V14C35.7375 12.525 34.5438 11.3313 33.0688 11.3313ZM21.0688 17.3313C19.5938 17.3313 18.4 18.525 18.4 20V44C18.4 45.475 19.5938 46.6688 21.0688 46.6688C22.5438 46.6688 23.7375 45.475 23.7375 44V20C23.7375 18.525 22.5438 17.3313 21.0688 17.3313ZM45.0688 17.3313C43.5938 17.3313 42.4 18.525 42.4 20V44C42.4 45.475 43.5938 46.6688 45.0688 46.6688C46.5438 46.6688 47.7375 45.475 47.7375 44V20C47.7375 18.525 46.5438 17.3313 45.0688 17.3313ZM9.06877 23.3313C7.59377 23.3313 6.40002 24.525 6.40002 26V38C6.40002 39.475 7.59377 40.6688 9.06877 40.6688C10.5438 40.6688 11.7375 39.475 11.7375 38V26C11.7375 24.525 10.5438 23.3313 9.06877 23.3313ZM57.0688 23.3313C55.5938 23.3313 54.4 24.525 54.4 26V38C54.4 39.475 55.5938 40.6688 57.0688 40.6688C58.5438 40.6688 59.7375 39.475 59.7375 38V26C59.7375 24.525 58.5438 23.3313 57.0688 23.3313Z" fill="#1CD1AD"/>
</g>
</svg>
