<svg width="40" height="40" viewBox="0 0 40 40" fill="none" xmlns="http://www.w3.org/2000/svg">
<g id="&#233;&#159;&#179;&#230;&#149;&#136;&#229;&#138;&#168;&#230;&#149;&#136;">
<path id="Vector" d="M20.668 7.08203C19.7461 7.08203 19 7.82812 19 8.75V31.25C19 32.1719 19.7461 32.918 20.668 32.918C21.5898 32.918 22.3359 32.1719 22.3359 31.25V8.75C22.3359 7.82812 21.5898 7.08203 20.668 7.08203ZM13.168 10.832C12.2461 10.832 11.5 11.5781 11.5 12.5V27.5C11.5 28.4219 12.2461 29.168 13.168 29.168C14.0898 29.168 14.8359 28.4219 14.8359 27.5V12.5C14.8359 11.5781 14.0898 10.832 13.168 10.832ZM28.168 10.832C27.2461 10.832 26.5 11.5781 26.5 12.5V27.5C26.5 28.4219 27.2461 29.168 28.168 29.168C29.0898 29.168 29.8359 28.4219 29.8359 27.5V12.5C29.8359 11.5781 29.0898 10.832 28.168 10.832ZM5.66797 14.582C4.74609 14.582 4 15.3281 4 16.25V23.75C4 24.6719 4.74609 25.418 5.66797 25.418C6.58984 25.418 7.33594 24.6719 7.33594 23.75V16.25C7.33594 15.3281 6.58984 14.582 5.66797 14.582ZM35.668 14.582C34.7461 14.582 34 15.3281 34 16.25V23.75C34 24.6719 34.7461 25.418 35.668 25.418C36.5898 25.418 37.3359 24.6719 37.3359 23.75V16.25C37.3359 15.3281 36.5898 14.582 35.668 14.582Z" fill="white"/>
</g>
</svg>
